<svg version="1.1" xmlns="http://www.w3.org/2000/svg" xmlns:xlink="http://www.w3.org/1999/xlink" width="1685.765625" height="731"><defs/><g><g transform="translate(-46,2) scale(1,1)"><rect fill="#C0C0C0" stroke="none" x="959" y="383" width="389.1806640625" height="167" opacity="0.2"/></g><g transform="translate(-46,2) scale(1,1)"><rect fill="#ffffff" stroke="none" x="952" y="376" width="389.1806640625" height="167"/></g><g transform="translate(-46,2) scale(1,1)"><path fill="none" stroke="#000000" d="M 952 376 L 1341.1806640625 376 L 1341.1806640625 543 L 952 543 L 952 376 Z Z" stroke-miterlimit="10"/></g><g transform="translate(-46,2) scale(1,1)"><path fill="none" stroke="#000000" d="M 1312.1806640625 381 L 1336.1806640625 381 L 1336.1806640625 405 L 1312.1806640625 405 L 1312.1806640625 381 Z Z" stroke-miterlimit="10"/></g><g transform="translate(-46,2) scale(1,1)"><path fill="none" stroke="#000000" d="M 1312.1806640625 381 L 1336.1806640625 405" stroke-miterlimit="10"/></g><g transform="translate(-46,2) scale(1,1)"><path fill="none" stroke="#000000" d="M 1336.1806640625 381 L 1312.1806640625 405" stroke-miterlimit="10"/></g><g transform="translate(-46,2) scale(1,1)"><path fill="none" stroke="#000000" d="M 952 448 L 1341.1806640625 448" stroke-miterlimit="10"/></g><g transform="translate(-46,2) scale(1,1)"><path fill="none" stroke="#000000" d="M 952 488 L 1341.1806640625 488" stroke-miterlimit="10"/></g><g transform="translate(-46,2) scale(1,1)"><g><path fill="none" stroke="none"/><text fill="#000000" stroke="none" font-family="Times New Roman" font-size="14px" font-style="normal" font-weight="normal" text-decoration="none" x="1134.59033203125" y="387.5"></text></g></g><g transform="translate(-46,2) scale(1,1)"><g><path fill="none" stroke="none"/><text fill="#000000" stroke="none" font-family="Times New Roman" font-size="14px" font-style="normal" font-weight="bold" text-decoration="none" x="1068.86962890625" y="408.5">MySQLDataBasePool</text></g></g><g transform="translate(-46,2) scale(1,1)"><g><path fill="none" stroke="none"/><text fill="#000000" stroke="none" font-family="Times New Roman" font-size="14px" font-style="normal" font-weight="normal" text-decoration="none" x="1090.474609375" y="424.5">(from database)</text></g></g><g transform="translate(-46,2) scale(1,1)"><g><path fill="none" stroke="none"/><text fill="#000000" stroke="none" font-family="Times New Roman" font-size="14px" font-style="normal" font-weight="normal" text-decoration="none" x="1277.76171875" y="440.5">{leaf}</text></g></g><g transform="translate(-46,2) scale(1,1)"><g><path fill="none" stroke="none"/><text fill="#000000" stroke="none" font-family="Times New Roman" font-size="14px" font-style="normal" font-weight="normal" text-decoration="none" x="957" y="464.5">-__pool: MySQLConnectionPool</text></g></g><g transform="translate(-46,2) scale(1,1)"><g><path fill="none" stroke="none"/><text fill="#000000" stroke="none" font-family="Times New Roman" font-size="14px" font-style="normal" font-weight="normal" text-decoration="none" x="957" y="480.5">-__pool_config: MySQLPoolConfigDTO</text></g></g><g transform="translate(-46,2) scale(1,1)"><g><path fill="none" stroke="none"/><text fill="#000000" stroke="none" font-family="Times New Roman" font-size="14px" font-style="normal" font-weight="normal" text-decoration="none" x="957" y="504.5">+__init__(pool_config: MySQLPoolConfigDTO, **dbconfig)</text></g></g><g transform="translate(-46,2) scale(1,1)"><g><path fill="none" stroke="none"/><text fill="#000000" stroke="none" font-family="Times New Roman" font-size="14px" font-style="normal" font-weight="normal" text-decoration="none" x="957" y="520.5">#_get_info_about_pool(): Dict[str, str] {query}</text></g></g><g transform="translate(-46,2) scale(1,1)"><g><path fill="none" stroke="none"/><text fill="#000000" stroke="none" font-family="Times New Roman" font-size="14px" font-style="normal" font-weight="normal" text-decoration="none" x="957" y="536.5">«property»+pool_config() {query}</text></g></g><g transform="translate(-46,2) scale(1,1)"><rect fill="#C0C0C0" stroke="none" x="175" y="391" width="293.9970703125" height="119" opacity="0.2"/></g><g transform="translate(-46,2) scale(1,1)"><rect fill="#ffffff" stroke="none" x="168" y="384" width="293.9970703125" height="119"/></g><g transform="translate(-46,2) scale(1,1)"><path fill="none" stroke="#000000" d="M 168 384 L 461.9970703125 384 L 461.9970703125 503 L 168 503 L 168 384 Z Z" stroke-miterlimit="10"/></g><g transform="translate(-46,2) scale(1,1)"><path fill="none" stroke="#000000" d="M 432.9970703125 389 L 456.9970703125 389 L 456.9970703125 413 L 432.9970703125 413 L 432.9970703125 389 Z Z" stroke-miterlimit="10"/></g><g transform="translate(-46,2) scale(1,1)"><path fill="none" stroke="#000000" d="M 432.9970703125 389 L 456.9970703125 413" stroke-miterlimit="10"/></g><g transform="translate(-46,2) scale(1,1)"><path fill="none" stroke="#000000" d="M 456.9970703125 389 L 432.9970703125 413" stroke-miterlimit="10"/></g><g transform="translate(-46,2) scale(1,1)"><path fill="none" stroke="#000000" d="M 168 456 L 461.9970703125 456" stroke-miterlimit="10"/></g><g transform="translate(-46,2) scale(1,1)"><path fill="none" stroke="#000000" d="M 168 480 L 461.9970703125 480" stroke-miterlimit="10"/></g><g transform="translate(-46,2) scale(1,1)"><g><path fill="none" stroke="none"/><text fill="#000000" stroke="none" font-family="Times New Roman" font-size="14px" font-style="normal" font-weight="normal" text-decoration="none" x="302.99853515625" y="395.5"></text></g></g><g transform="translate(-46,2) scale(1,1)"><g><path fill="none" stroke="none"/><text fill="#000000" stroke="none" font-family="Times New Roman" font-size="14px" font-style="normal" font-weight="bold" text-decoration="none" x="232.2158203125" y="416.5">MySQLDataBaseSingle</text></g></g><g transform="translate(-46,2) scale(1,1)"><g><path fill="none" stroke="none"/><text fill="#000000" stroke="none" font-family="Times New Roman" font-size="14px" font-style="normal" font-weight="normal" text-decoration="none" x="258.8828125" y="432.5">(from database)</text></g></g><g transform="translate(-46,2) scale(1,1)"><g><path fill="none" stroke="none"/><text fill="#000000" stroke="none" font-family="Times New Roman" font-size="14px" font-style="normal" font-weight="normal" text-decoration="none" x="398.578125" y="448.5">{leaf}</text></g></g><g transform="translate(-46,2) scale(1,1)"><g><path fill="none" stroke="none"/><text fill="#000000" stroke="none" font-family="Times New Roman" font-size="14px" font-style="normal" font-weight="normal" text-decoration="none" x="173" y="472.5">-__connection_with_database: MySQLConnection</text></g></g><g transform="translate(-46,2) scale(1,1)"><g><path fill="none" stroke="none"/><text fill="#000000" stroke="none" font-family="Times New Roman" font-size="14px" font-style="normal" font-weight="normal" text-decoration="none" x="173" y="496.5">+__init__(**dbconfig)</text></g></g><g transform="translate(-46,2) scale(1,1)"><rect fill="#C0C0C0" stroke="none" x="559" y="199" width="356.142578125" height="183" opacity="0.2"/></g><g transform="translate(-46,2) scale(1,1)"><rect fill="#ffffff" stroke="none" x="552" y="192" width="356.142578125" height="183"/></g><g transform="translate(-46,2) scale(1,1)"><path fill="none" stroke="#000000" d="M 552 192 L 908.142578125 192 L 908.142578125 375 L 552 375 L 552 192 Z Z" stroke-miterlimit="10"/></g><g transform="translate(-46,2) scale(1,1)"><path fill="none" stroke="#000000" d="M 879.142578125 197 L 903.142578125 197 L 903.142578125 221 L 879.142578125 221 L 879.142578125 197 Z Z" stroke-miterlimit="10"/></g><g transform="translate(-46,2) scale(1,1)"><path fill="none" stroke="#000000" d="M 879.142578125 197 L 903.142578125 221" stroke-miterlimit="10"/></g><g transform="translate(-46,2) scale(1,1)"><path fill="none" stroke="#000000" d="M 903.142578125 197 L 879.142578125 221" stroke-miterlimit="10"/></g><g transform="translate(-46,2) scale(1,1)"><path fill="none" stroke="#000000" d="M 552 248 L 908.142578125 248" stroke-miterlimit="10"/></g><g transform="translate(-46,2) scale(1,1)"><path fill="none" stroke="#000000" d="M 552 272 L 908.142578125 272" stroke-miterlimit="10"/></g><g transform="translate(-46,2) scale(1,1)"><g><path fill="none" stroke="none"/><text fill="#000000" stroke="none" font-family="Times New Roman" font-size="14px" font-style="normal" font-weight="normal" text-decoration="none" x="718.0712890625" y="203.5"></text></g></g><g transform="translate(-46,2) scale(1,1)"><g><path fill="none" stroke="none"/><text fill="#000000" stroke="none" font-family="Times New Roman" font-size="14px" font-style="italic" font-weight="bold" text-decoration="none" x="676.84716796875" y="224.5">SQLDataBase</text></g></g><g transform="translate(-46,2) scale(1,1)"><g><path fill="none" stroke="none"/><text fill="#000000" stroke="none" font-family="Times New Roman" font-size="14px" font-style="normal" font-weight="normal" text-decoration="none" x="673.95556640625" y="240.5">(from database)</text></g></g><g transform="translate(-46,2) scale(1,1)"><g><path fill="none" stroke="none"/><text fill="#000000" stroke="none" font-family="Times New Roman" font-size="14px" font-style="normal" font-weight="normal" text-decoration="none" x="557" y="264.5">-__dbconfig: Dict[str, Any]</text></g></g><g transform="translate(-46,2) scale(1,1)"><g><path fill="none" stroke="none"/><text fill="#000000" stroke="none" font-family="Times New Roman" font-size="14px" font-style="normal" font-weight="normal" text-decoration="none" x="557" y="288.5">+__init__(**dbconfig)</text></g></g><g transform="translate(-46,2) scale(1,1)"><g><path fill="none" stroke="none"/><text fill="#000000" stroke="none" font-family="Times New Roman" font-size="14px" font-style="normal" font-weight="normal" text-decoration="none" x="557" y="304.5">«property»+dbconfig(): Dict[str, Any] {query}</text></g></g><g transform="translate(-46,2) scale(1,1)"><g><path fill="none" stroke="none"/><text fill="#000000" stroke="none" font-family="Times New Roman" font-size="14px" font-style="normal" font-weight="normal" text-decoration="none" x="557" y="320.5">«dbconfig.setter»+dbconfig(new_dbconfig: Dict[str, Any])</text></g></g><g transform="translate(-46,2) scale(1,1)"><g><path fill="none" stroke="none"/><text fill="#000000" stroke="none" font-family="Times New Roman" font-size="14px" font-style="italic" font-weight="normal" text-decoration="none" x="557" y="336.5">«abstractmethod»+__repr__(): str {query}</text></g></g><g transform="translate(-46,2) scale(1,1)"><g><path fill="none" stroke="none"/><text fill="#000000" stroke="none" font-family="Times New Roman" font-size="14px" font-style="italic" font-weight="normal" text-decoration="none" x="557" y="352.5">«abstractmethod»#_get_info_about_server(): str {query}</text></g></g><g transform="translate(-46,2) scale(1,1)"><g><path fill="none" stroke="none"/><text fill="#000000" stroke="none" font-family="Times New Roman" font-size="14px" font-style="italic" font-weight="normal" text-decoration="none" x="557" y="368.5">«abstractmethod»#_get_info_about_connection(): str {query}</text></g></g><g transform="translate(-46,2) scale(1,1)"><path fill="none" stroke="#000000" d="M 462 448 L 728 448 L 728 375" stroke-miterlimit="10"/></g><g transform="translate(-46,2) scale(1,1)"><path fill="#FFFFFF" stroke="none" d="M 736.419035512032 395.3253497152483 L 728 375 L 719.580964487968 395.3253497152483"/></g><g transform="translate(-46,2) scale(1,1)"><path fill="none" stroke="#000000" d="M 736.419035512032 395.3253497152483 L 728 375 L 719.580964487968 395.3253497152483 L 736.419035512032 395.3253497152483" stroke-miterlimit="10"/></g><g transform="translate(-46,2) scale(1,1)"><path fill="none" stroke="#000000" d="M 952 448 L 728 448 L 728 375" stroke-miterlimit="10"/></g><g transform="translate(-46,2) scale(1,1)"><path fill="#FFFFFF" stroke="none" d="M 736.419035512032 395.3253497152483 L 728 375 L 719.580964487968 395.3253497152483"/></g><g transform="translate(-46,2) scale(1,1)"><path fill="none" stroke="#000000" d="M 736.419035512032 395.3253497152483 L 728 375 L 719.580964487968 395.3253497152483 L 736.419035512032 395.3253497152483" stroke-miterlimit="10"/></g><g transform="translate(-46,2) scale(1,1)"><rect fill="#C0C0C0" stroke="none" x="903" y="631" width="498.53515625" height="95" opacity="0.2"/></g><g transform="translate(-46,2) scale(1,1)"><rect fill="#ffffff" stroke="none" x="896" y="624" width="498.53515625" height="95"/></g><g transform="translate(-46,2) scale(1,1)"><path fill="none" stroke="#000000" d="M 896 624 L 1394.53515625 624 L 1394.53515625 719 L 896 719 L 896 624 Z Z" stroke-miterlimit="10"/></g><g transform="translate(-46,2) scale(1,1)"><path fill="#ffffff" stroke="none" d="M 1368.53515625 641 C 1368.53515625 636.0294368 1372.56459305 632 1377.53515625 632 C 1382.50571945 632 1386.53515625 636.0294368 1386.53515625 641 C 1386.53515625 645.9705632 1382.50571945 650 1377.53515625 650 C 1372.56459305 650 1368.53515625 645.9705632 1368.53515625 641 Z"/></g><g transform="translate(-46,2) scale(1,1)"><path fill="none" stroke="#000000" d="M 1368.53515625 641 C 1368.53515625 636.0294368 1372.56459305 632 1377.53515625 632 C 1382.50571945 632 1386.53515625 636.0294368 1386.53515625 641 C 1386.53515625 645.9705632 1382.50571945 650 1377.53515625 650 C 1372.56459305 650 1368.53515625 645.9705632 1368.53515625 641 Z" stroke-miterlimit="10"/></g><g transform="translate(-46,2) scale(1,1)"><path fill="none" stroke="#000000" d="M 896 680 L 1394.53515625 680" stroke-miterlimit="10"/></g><g transform="translate(-46,2) scale(1,1)"><g><path fill="none" stroke="none"/><text fill="#000000" stroke="none" font-family="Times New Roman" font-size="14px" font-style="normal" font-weight="normal" text-decoration="none" x="1101.7880859375" y="640.5">«interface»</text></g></g><g transform="translate(-46,2) scale(1,1)"><g><path fill="none" stroke="none"/><text fill="#000000" stroke="none" font-family="Times New Roman" font-size="14px" font-style="italic" font-weight="bold" text-decoration="none" x="1060.1572265625" y="656.5">PoolConnectionInterface</text></g></g><g transform="translate(-46,2) scale(1,1)"><g><path fill="none" stroke="none"/><text fill="#000000" stroke="none" font-family="Times New Roman" font-size="14px" font-style="normal" font-weight="normal" text-decoration="none" x="1089.15185546875" y="672.5">(from database)</text></g></g><g transform="translate(-46,2) scale(1,1)"><g><path fill="none" stroke="none"/><text fill="#000000" stroke="none" font-family="Times New Roman" font-size="14px" font-style="italic" font-weight="normal" text-decoration="none" x="901" y="696.5">«abstractmethod»+create_connection_pool(**dbconfig): ConnectionPoolType {query}</text></g></g><g transform="translate(-46,2) scale(1,1)"><g><path fill="none" stroke="none"/><text fill="#000000" stroke="none" font-family="Times New Roman" font-size="14px" font-style="italic" font-weight="normal" text-decoration="none" x="901" y="712.5">«abstractmethod»+get_connection_from_pool(): PooledConnectionType {query}</text></g></g><g transform="translate(-46,2) scale(1,1)"><path fill="none" stroke="#000000" d="M 1144 543 L 1144 624" stroke-miterlimit="10" stroke-dasharray="3"/></g><g transform="translate(-46,2) scale(1,1)"><path fill="#FFFFFF" stroke="none" d="M 1135.580964487968 603.6746502847517 L 1144 624 L 1152.419035512032 603.6746502847517"/></g><g transform="translate(-46,2) scale(1,1)"><path fill="none" stroke="#000000" d="M 1135.580964487968 603.6746502847517 L 1144 624 L 1152.419035512032 603.6746502847517 L 1135.580964487968 603.6746502847517" stroke-miterlimit="10"/></g><g transform="translate(-46,2) scale(1,1)"><path fill="none" stroke="#000000" d="M 320 503 L 320 584" stroke-miterlimit="10" stroke-dasharray="3"/></g><g transform="translate(-46,2) scale(1,1)"><path fill="#FFFFFF" stroke="none" d="M 311.580964487968 563.6746502847517 L 320 584 L 328.419035512032 563.6746502847517"/></g><g transform="translate(-46,2) scale(1,1)"><path fill="none" stroke="#000000" d="M 311.580964487968 563.6746502847517 L 320 584 L 328.419035512032 563.6746502847517 L 311.580964487968 563.6746502847517" stroke-miterlimit="10"/></g><g transform="translate(-46,2) scale(1,1)"><rect fill="#C0C0C0" stroke="none" x="63" y="591" width="528.873046875" height="95" opacity="0.2"/></g><g transform="translate(-46,2) scale(1,1)"><rect fill="#ffffff" stroke="none" x="56" y="584" width="528.873046875" height="95"/></g><g transform="translate(-46,2) scale(1,1)"><path fill="none" stroke="#000000" d="M 56 584 L 584.873046875 584 L 584.873046875 679 L 56 679 L 56 584 Z Z" stroke-miterlimit="10"/></g><g transform="translate(-46,2) scale(1,1)"><path fill="#ffffff" stroke="none" d="M 558.873046875 601 C 558.873046875 596.0294368 562.902483675 592 567.873046875 592 C 572.843610075 592 576.873046875 596.0294368 576.873046875 601 C 576.873046875 605.9705632 572.843610075 610 567.873046875 610 C 562.902483675 610 558.873046875 605.9705632 558.873046875 601 Z"/></g><g transform="translate(-46,2) scale(1,1)"><path fill="none" stroke="#000000" d="M 558.873046875 601 C 558.873046875 596.0294368 562.902483675 592 567.873046875 592 C 572.843610075 592 576.873046875 596.0294368 576.873046875 601 C 576.873046875 605.9705632 572.843610075 610 567.873046875 610 C 562.902483675 610 558.873046875 605.9705632 558.873046875 601 Z" stroke-miterlimit="10"/></g><g transform="translate(-46,2) scale(1,1)"><path fill="none" stroke="#000000" d="M 56 640 L 584.873046875 640" stroke-miterlimit="10"/></g><g transform="translate(-46,2) scale(1,1)"><g><path fill="none" stroke="none"/><text fill="#000000" stroke="none" font-family="Times New Roman" font-size="14px" font-style="normal" font-weight="normal" text-decoration="none" x="276.95703125" y="600.5">«interface»</text></g></g><g transform="translate(-46,2) scale(1,1)"><g><path fill="none" stroke="none"/><text fill="#000000" stroke="none" font-family="Times New Roman" font-size="14px" font-style="italic" font-weight="bold" text-decoration="none" x="230.26416015625" y="616.5">SingleConnectionInterface</text></g></g><g transform="translate(-46,2) scale(1,1)"><g><path fill="none" stroke="none"/><text fill="#000000" stroke="none" font-family="Times New Roman" font-size="14px" font-style="normal" font-weight="normal" text-decoration="none" x="264.32080078125" y="632.5">(from database)</text></g></g><g transform="translate(-46,2) scale(1,1)"><g><path fill="none" stroke="none"/><text fill="#000000" stroke="none" font-family="Times New Roman" font-size="14px" font-style="italic" font-weight="normal" text-decoration="none" x="61" y="656.5">«abstractmethod»+create_connection_with_database(**dbconfig): ConnectionType {query}</text></g></g><g transform="translate(-46,2) scale(1,1)"><g><path fill="none" stroke="none"/><text fill="#000000" stroke="none" font-family="Times New Roman" font-size="14px" font-style="italic" font-weight="normal" text-decoration="none" x="61" y="672.5">«abstractmethod»+get_connection_with_database(): ConnectionType {query}</text></g></g><g transform="translate(-46,2) scale(1,1)"><rect fill="#C0C0C0" stroke="none" x="1487" y="423" width="188.2021484375" height="71" opacity="0.2"/></g><g transform="translate(-46,2) scale(1,1)"><rect fill="#ffffff" stroke="none" x="1480" y="416" width="188.2021484375" height="71"/></g><g transform="translate(-46,2) scale(1,1)"><path fill="none" stroke="#000000" d="M 1480 416 L 1668.2021484375 416 L 1668.2021484375 487 L 1480 487 L 1480 416 Z Z" stroke-miterlimit="10"/></g><g transform="translate(-46,2) scale(1,1)"><path fill="none" stroke="#000000" d="M 1639.2021484375 421 L 1663.2021484375 421 L 1663.2021484375 445 L 1639.2021484375 445 L 1639.2021484375 421 Z Z" stroke-miterlimit="10"/></g><g transform="translate(-46,2) scale(1,1)"><path fill="none" stroke="#000000" d="M 1639.2021484375 421 L 1663.2021484375 445" stroke-miterlimit="10"/></g><g transform="translate(-46,2) scale(1,1)"><path fill="none" stroke="#000000" d="M 1663.2021484375 421 L 1639.2021484375 445" stroke-miterlimit="10"/></g><g transform="translate(-46,2) scale(1,1)"><g><path fill="none" stroke="none"/><text fill="#000000" stroke="none" font-family="Times New Roman" font-size="14px" font-style="normal" font-weight="normal" text-decoration="none" x="1562.10107421875" y="427.5"></text></g></g><g transform="translate(-46,2) scale(1,1)"><g><path fill="none" stroke="none"/><text fill="#000000" stroke="none" font-family="Times New Roman" font-size="14px" font-style="normal" font-weight="bold" text-decoration="none" x="1489.5" y="448.5">MySQLPoolConfigDTO</text></g></g><g transform="translate(-46,2) scale(1,1)"><g><path fill="none" stroke="none"/><text fill="#000000" stroke="none" font-family="Times New Roman" font-size="14px" font-style="normal" font-weight="normal" text-decoration="none" x="1524.19921875" y="464.5">(from config)</text></g></g><g transform="translate(-46,2) scale(1,1)"><g><path fill="none" stroke="none"/><text fill="#000000" stroke="none" font-family="Times New Roman" font-size="14px" font-style="normal" font-weight="normal" text-decoration="none" x="1604.783203125" y="480.5">{leaf}</text></g></g><g transform="translate(-46,2) scale(1,1)"><rect fill="#C0C0C0" stroke="none" x="455" y="15" width="564.5087890625" height="111" opacity="0.2"/></g><g transform="translate(-46,2) scale(1,1)"><rect fill="#ffffff" stroke="none" x="448" y="8" width="564.5087890625" height="111"/></g><g transform="translate(-46,2) scale(1,1)"><path fill="none" stroke="#000000" d="M 448 8 L 1012.5087890625 8 L 1012.5087890625 119 L 448 119 L 448 8 Z Z" stroke-miterlimit="10"/></g><g transform="translate(-46,2) scale(1,1)"><path fill="#ffffff" stroke="none" d="M 986.5087890625 25 C 986.5087890625 20.0294368 990.5382258625 16 995.5087890625 16 C 1000.4793522625 16 1004.5087890625 20.0294368 1004.5087890625 25 C 1004.5087890625 29.9705632 1000.4793522625 34 995.5087890625 34 C 990.5382258625 34 986.5087890625 29.9705632 986.5087890625 25 Z"/></g><g transform="translate(-46,2) scale(1,1)"><path fill="none" stroke="#000000" d="M 986.5087890625 25 C 986.5087890625 20.0294368 990.5382258625 16 995.5087890625 16 C 1000.4793522625 16 1004.5087890625 20.0294368 1004.5087890625 25 C 1004.5087890625 29.9705632 1000.4793522625 34 995.5087890625 34 C 990.5382258625 34 986.5087890625 29.9705632 986.5087890625 25 Z" stroke-miterlimit="10"/></g><g transform="translate(-46,2) scale(1,1)"><path fill="none" stroke="#000000" d="M 448 64 L 1012.5087890625 64" stroke-miterlimit="10"/></g><g transform="translate(-46,2) scale(1,1)"><g><path fill="none" stroke="none"/><text fill="#000000" stroke="none" font-family="Times New Roman" font-size="14px" font-style="normal" font-weight="normal" text-decoration="none" x="686.77490234375" y="24.5">«interface»</text></g></g><g transform="translate(-46,2) scale(1,1)"><g><path fill="none" stroke="none"/><text fill="#000000" stroke="none" font-family="Times New Roman" font-size="14px" font-style="italic" font-weight="bold" text-decoration="none" x="666.92333984375" y="40.5">SQLAPIInterface</text></g></g><g transform="translate(-46,2) scale(1,1)"><g><path fill="none" stroke="none"/><text fill="#000000" stroke="none" font-family="Times New Roman" font-size="14px" font-style="normal" font-weight="normal" text-decoration="none" x="689.68359375" y="56.5">(from api)</text></g></g><g transform="translate(-46,2) scale(1,1)"><g><path fill="none" stroke="none"/><text fill="#000000" stroke="none" font-family="Times New Roman" font-size="14px" font-style="italic" font-weight="normal" text-decoration="none" x="453" y="80.5">«abstractmethod»+execute_query_no_returns(sql_query: str, *query_data) {query}</text></g></g><g transform="translate(-46,2) scale(1,1)"><g><path fill="none" stroke="none"/><text fill="#000000" stroke="none" font-family="Times New Roman" font-size="14px" font-style="italic" font-weight="normal" text-decoration="none" x="453" y="96.5">«abstractmethod»+execute_query_returns_one(sql_query: str, *query_data): Any {query}</text></g></g><g transform="translate(-46,2) scale(1,1)"><g><path fill="none" stroke="none"/><text fill="#000000" stroke="none" font-family="Times New Roman" font-size="14px" font-style="italic" font-weight="normal" text-decoration="none" x="453" y="112.5">«abstractmethod»+execute_query_returns_all(sql_query: str, *query_data): Iterable[Any] {query}</text></g></g><g transform="translate(-46,2) scale(1,1)"><path fill="none" stroke="#000000" d="M 728 192 L 728 119" stroke-miterlimit="10" stroke-dasharray="3"/></g><g transform="translate(-46,2) scale(1,1)"><path fill="#FFFFFF" stroke="none" d="M 736.419035512032 139.3253497152483 L 728 119 L 719.580964487968 139.3253497152483"/></g><g transform="translate(-46,2) scale(1,1)"><path fill="none" stroke="#000000" d="M 736.419035512032 139.3253497152483 L 728 119 L 719.580964487968 139.3253497152483 L 736.419035512032 139.3253497152483" stroke-miterlimit="10"/></g><g transform="translate(-46,2) scale(1,1)"><path fill="none" stroke="#000000" d="M 320 384 L 320 64 L 448 64" stroke-miterlimit="10" stroke-dasharray="3"/></g><g transform="translate(-46,2) scale(1,1)"><path fill="none" stroke="#000000" d="M 437.83732514237585 68.20951775601598 L 448 64 L 437.83732514237585 59.790482243984016" stroke-miterlimit="10"/></g><g transform="translate(-46,2) scale(1,1)"><g><path fill="none" stroke="none"/><text fill="#000000" stroke="none" font-family="Times New Roman" font-size="14px" font-style="normal" font-weight="normal" text-decoration="none" x="326.5" y="236">«use»</text></g></g><g transform="translate(-46,2) scale(1,1)"><path fill="none" stroke="#000000" d="M 1152 376 L 1152 64 L 1013 64" stroke-miterlimit="10" stroke-dasharray="3"/></g><g transform="translate(-46,2) scale(1,1)"><path fill="none" stroke="#000000" d="M 1023.1626748576241 59.790482243984016 L 1013 64 L 1023.1626748576241 68.20951775601598" stroke-miterlimit="10"/></g><g transform="translate(-46,2) scale(1,1)"><g><path fill="none" stroke="none"/><text fill="#000000" stroke="none" font-family="Times New Roman" font-size="14px" font-style="normal" font-weight="normal" text-decoration="none" x="1158.5" y="232">«use»</text></g></g><g transform="translate(-46,2) scale(1,1)"><rect fill="#C0C0C0" stroke="none" x="1439" y="135" width="289.765625" height="151" opacity="0.2"/></g><g transform="translate(-46,2) scale(1,1)"><rect fill="#ffffff" stroke="none" x="1432" y="128" width="289.765625" height="151"/></g><g transform="translate(-46,2) scale(1,1)"><path fill="none" stroke="#000000" d="M 1432 128 L 1721.765625 128 L 1721.765625 279 L 1432 279 L 1432 128 Z Z" stroke-miterlimit="10"/></g><g transform="translate(-46,2) scale(1,1)"><path fill="none" stroke="#000000" d="M 1692.765625 133 L 1716.765625 133 L 1716.765625 157 L 1692.765625 157 L 1692.765625 133 Z Z" stroke-miterlimit="10"/></g><g transform="translate(-46,2) scale(1,1)"><path fill="none" stroke="#000000" d="M 1692.765625 133 L 1716.765625 157" stroke-miterlimit="10"/></g><g transform="translate(-46,2) scale(1,1)"><path fill="none" stroke="#000000" d="M 1716.765625 133 L 1692.765625 157" stroke-miterlimit="10"/></g><g transform="translate(-46,2) scale(1,1)"><path fill="none" stroke="#000000" d="M 1432 184 L 1721.765625 184" stroke-miterlimit="10"/></g><g transform="translate(-46,2) scale(1,1)"><path fill="none" stroke="#000000" d="M 1432 240 L 1721.765625 240" stroke-miterlimit="10"/></g><g transform="translate(-46,2) scale(1,1)"><g><path fill="none" stroke="none"/><text fill="#000000" stroke="none" font-family="Times New Roman" font-size="14px" font-style="normal" font-weight="normal" text-decoration="none" x="1493.16357421875" y="144.5">«dataclass(frozen=True)»</text></g></g><g transform="translate(-46,2) scale(1,1)"><g><path fill="none" stroke="none"/><text fill="#000000" stroke="none" font-family="Times New Roman" font-size="14px" font-style="italic" font-weight="bold" text-decoration="none" x="1517.564453125" y="160.5">PoolConfigDTO</text></g></g><g transform="translate(-46,2) scale(1,1)"><g><path fill="none" stroke="none"/><text fill="#000000" stroke="none" font-family="Times New Roman" font-size="14px" font-style="normal" font-weight="normal" text-decoration="none" x="1526.98095703125" y="176.5">(from config)</text></g></g><g transform="translate(-46,2) scale(1,1)"><g><path fill="none" stroke="none"/><text fill="#000000" stroke="none" font-family="Times New Roman" font-size="14px" font-style="normal" font-weight="normal" text-decoration="none" x="1437" y="200.5">+name: str {readOnly}</text></g></g><g transform="translate(-46,2) scale(1,1)"><g><path fill="none" stroke="none"/><text fill="#000000" stroke="none" font-family="Times New Roman" font-size="14px" font-style="normal" font-weight="normal" text-decoration="none" x="1437" y="216.5">+size: int {readOnly}</text></g></g><g transform="translate(-46,2) scale(1,1)"><g><path fill="none" stroke="none"/><text fill="#000000" stroke="none" font-family="Times New Roman" font-size="14px" font-style="normal" font-weight="normal" text-decoration="none" x="1437" y="232.5">+reset_session: bool {readOnly}</text></g></g><g transform="translate(-46,2) scale(1,1)"><g><path fill="none" stroke="none"/><text fill="#000000" stroke="none" font-family="Times New Roman" font-size="14px" font-style="normal" font-weight="normal" text-decoration="none" x="1437" y="256.5">+__post_init__() {query}</text></g></g><g transform="translate(-46,2) scale(1,1)"><g><path fill="none" stroke="none"/><text fill="#000000" stroke="none" font-family="Times New Roman" font-size="14px" font-style="italic" font-weight="normal" text-decoration="none" x="1437" y="272.5">«abstractmethod»+validate_fields_data() {query}</text></g></g><g transform="translate(-46,2) scale(1,1)"><path fill="none" stroke="#000000" d="M 1576 416 L 1576 279" stroke-miterlimit="10"/></g><g transform="translate(-46,2) scale(1,1)"><path fill="#FFFFFF" stroke="none" d="M 1584.419035512032 299.3253497152483 L 1576 279 L 1567.580964487968 299.3253497152483"/></g><g transform="translate(-46,2) scale(1,1)"><path fill="none" stroke="#000000" d="M 1584.419035512032 299.3253497152483 L 1576 279 L 1567.580964487968 299.3253497152483 L 1584.419035512032 299.3253497152483" stroke-miterlimit="10"/></g><g transform="translate(-46,2) scale(1,1)"><path fill="none" stroke="#000000" d="M 1480 455 L 1341 455" stroke-miterlimit="10"/></g><g transform="translate(-46,2) scale(1,1)"><path fill="#FFFFFF" stroke="none" d="M 1351.162674857624 450.790482243984 L 1341 455 L 1351.162674857624 459.209517756016 L 1363 455"/></g><g transform="translate(-46,2) scale(1,1)"><path fill="none" stroke="#000000" d="M 1351.162674857624 450.790482243984 L 1341 455 L 1351.162674857624 459.209517756016 L 1363 455 L 1351.162674857624 450.790482243984" stroke-miterlimit="10"/></g><g transform="translate(-46,2) scale(1,1)"><path fill="none" stroke="#000000" d="M 1463.837325142376 459.209517756016 L 1474 455 L 1463.837325142376 450.790482243984" stroke-miterlimit="10"/></g><g transform="translate(-46,2) scale(1,1)"><path fill="#000000" stroke="none" d="M 1474 455 C 1474 453.3431456 1475.3431456 452 1477 452 C 1478.6568544 452 1480 453.3431456 1480 455 C 1480 456.6568544 1478.6568544 458 1477 458 C 1475.3431456 458 1474 456.6568544 1474 455 Z"/></g><g transform="translate(-46,2) scale(1,1)"><g><path fill="none" stroke="none"/><text fill="#000000" stroke="none" font-family="Times New Roman" font-size="14px" font-style="normal" font-weight="normal" text-decoration="none" x="1390.5" y="472.5">-__pool_config</text></g></g><g transform="translate(-46,2) scale(1,1)"><g><path fill="none" stroke="none"/><text fill="#000000" stroke="none" font-family="Times New Roman" font-size="14px" font-style="normal" font-weight="normal" text-decoration="none" x="1358.5" y="446.5">*</text></g></g></g></svg>