<svg version="1.1" xmlns="http://www.w3.org/2000/svg" xmlns:xlink="http://www.w3.org/1999/xlink" width="1603.9697265625" height="731"><defs/><g><g transform="translate(-70,2) scale(1,1)"><rect fill="#C0C0C0" stroke="none" x="935" y="391" width="343.2841796875" height="152" opacity="0.2"/></g><g transform="translate(-70,2) scale(1,1)"><rect fill="#ffffff" stroke="none" x="928" y="384" width="343.2841796875" height="152"/></g><g transform="translate(-70,2) scale(1,1)"><path fill="none" stroke="#000000" d="M 928 384 L 1271.2841796875 384 L 1271.2841796875 536 L 928 536 L 928 384 Z Z" stroke-miterlimit="10"/></g><g transform="translate(-70,2) scale(1,1)"><path fill="none" stroke="#000000" d="M 1242.2841796875 389 L 1266.2841796875 389 L 1266.2841796875 413 L 1242.2841796875 413 L 1242.2841796875 389 Z Z" stroke-miterlimit="10"/></g><g transform="translate(-70,2) scale(1,1)"><path fill="none" stroke="#000000" d="M 1242.2841796875 389 L 1266.2841796875 413" stroke-miterlimit="10"/></g><g transform="translate(-70,2) scale(1,1)"><path fill="none" stroke="#000000" d="M 1266.2841796875 389 L 1242.2841796875 413" stroke-miterlimit="10"/></g><g transform="translate(-70,2) scale(1,1)"><path fill="none" stroke="#000000" d="M 928 442 L 1271.2841796875 442" stroke-miterlimit="10"/></g><g transform="translate(-70,2) scale(1,1)"><path fill="none" stroke="#000000" d="M 928 482 L 1271.2841796875 482" stroke-miterlimit="10"/></g><g transform="translate(-70,2) scale(1,1)"><g><path fill="none" stroke="none"/><text fill="#000000" stroke="none" font-family="Times New Roman" font-size="14px" font-style="normal" font-weight="bold" text-decoration="none" x="1021.92138671875" y="402.5">MySQLDataBasePool</text></g></g><g transform="translate(-70,2) scale(1,1)"><g><path fill="none" stroke="none"/><text fill="#000000" stroke="none" font-family="Times New Roman" font-size="14px" font-style="normal" font-weight="normal" text-decoration="none" x="1043.5263671875" y="418.5">(from database)</text></g></g><g transform="translate(-70,2) scale(1,1)"><g><path fill="none" stroke="none"/><text fill="#000000" stroke="none" font-family="Times New Roman" font-size="14px" font-style="normal" font-weight="normal" text-decoration="none" x="1207.865234375" y="434.5">{leaf}</text></g></g><g transform="translate(-70,2) scale(1,1)"><g><path fill="none" stroke="none"/><text fill="#000000" stroke="none" font-family="Times New Roman" font-size="14px" font-style="normal" font-weight="normal" text-decoration="none" x="933" y="458.5">-__pool: MySQLConnectionPool</text></g></g><g transform="translate(-70,2) scale(1,1)"><g><path fill="none" stroke="none"/><text fill="#000000" stroke="none" font-family="Times New Roman" font-size="14px" font-style="normal" font-weight="normal" text-decoration="none" x="933" y="474.5">-__pool_config: PoolConfigDTO</text></g></g><g transform="translate(-70,2) scale(1,1)"><g><path fill="none" stroke="none"/><text fill="#000000" stroke="none" font-family="Times New Roman" font-size="14px" font-style="normal" font-weight="normal" text-decoration="none" x="933" y="498.5">+__init__(pool_config: PoolConfigDTO, **dbconfig: Any)</text></g></g><g transform="translate(-70,2) scale(1,1)"><g><path fill="none" stroke="none"/><text fill="#000000" stroke="none" font-family="Times New Roman" font-size="14px" font-style="normal" font-weight="normal" text-decoration="none" x="933" y="514.5">#_get_info_about_pool(): Dict[str, str] {query}</text></g></g><g transform="translate(-70,2) scale(1,1)"><g><path fill="none" stroke="none"/><text fill="#000000" stroke="none" font-family="Times New Roman" font-size="14px" font-style="normal" font-weight="normal" text-decoration="none" x="933" y="530.5">+pool_config() {query}</text></g></g><g transform="translate(-70,2) scale(1,1)"><rect fill="#C0C0C0" stroke="none" x="199" y="391" width="293.9970703125" height="104" opacity="0.2"/></g><g transform="translate(-70,2) scale(1,1)"><rect fill="#ffffff" stroke="none" x="192" y="384" width="293.9970703125" height="104"/></g><g transform="translate(-70,2) scale(1,1)"><path fill="none" stroke="#000000" d="M 192 384 L 485.9970703125 384 L 485.9970703125 488 L 192 488 L 192 384 Z Z" stroke-miterlimit="10"/></g><g transform="translate(-70,2) scale(1,1)"><path fill="none" stroke="#000000" d="M 456.9970703125 389 L 480.9970703125 389 L 480.9970703125 413 L 456.9970703125 413 L 456.9970703125 389 Z Z" stroke-miterlimit="10"/></g><g transform="translate(-70,2) scale(1,1)"><path fill="none" stroke="#000000" d="M 456.9970703125 389 L 480.9970703125 413" stroke-miterlimit="10"/></g><g transform="translate(-70,2) scale(1,1)"><path fill="none" stroke="#000000" d="M 480.9970703125 389 L 456.9970703125 413" stroke-miterlimit="10"/></g><g transform="translate(-70,2) scale(1,1)"><path fill="none" stroke="#000000" d="M 192 442 L 485.9970703125 442" stroke-miterlimit="10"/></g><g transform="translate(-70,2) scale(1,1)"><path fill="none" stroke="#000000" d="M 192 466 L 485.9970703125 466" stroke-miterlimit="10"/></g><g transform="translate(-70,2) scale(1,1)"><g><path fill="none" stroke="none"/><text fill="#000000" stroke="none" font-family="Times New Roman" font-size="14px" font-style="normal" font-weight="bold" text-decoration="none" x="256.2158203125" y="402.5">MySQLDataBaseSingle</text></g></g><g transform="translate(-70,2) scale(1,1)"><g><path fill="none" stroke="none"/><text fill="#000000" stroke="none" font-family="Times New Roman" font-size="14px" font-style="normal" font-weight="normal" text-decoration="none" x="282.8828125" y="418.5">(from database)</text></g></g><g transform="translate(-70,2) scale(1,1)"><g><path fill="none" stroke="none"/><text fill="#000000" stroke="none" font-family="Times New Roman" font-size="14px" font-style="normal" font-weight="normal" text-decoration="none" x="422.578125" y="434.5">{leaf}</text></g></g><g transform="translate(-70,2) scale(1,1)"><g><path fill="none" stroke="none"/><text fill="#000000" stroke="none" font-family="Times New Roman" font-size="14px" font-style="normal" font-weight="normal" text-decoration="none" x="197" y="458.5">-__connection_with_database: MySQLConnection</text></g></g><g transform="translate(-70,2) scale(1,1)"><g><path fill="none" stroke="none"/><text fill="#000000" stroke="none" font-family="Times New Roman" font-size="14px" font-style="normal" font-weight="normal" text-decoration="none" x="197" y="482.5">+__init__(**dbconfig: Any)</text></g></g><g transform="translate(-70,2) scale(1,1)"><rect fill="#C0C0C0" stroke="none" x="599" y="207" width="263.0234375" height="168" opacity="0.2"/></g><g transform="translate(-70,2) scale(1,1)"><rect fill="#ffffff" stroke="none" x="592" y="200" width="263.0234375" height="168"/></g><g transform="translate(-70,2) scale(1,1)"><path fill="none" stroke="#000000" d="M 592 200 L 855.0234375 200 L 855.0234375 368 L 592 368 L 592 200 Z Z" stroke-miterlimit="10"/></g><g transform="translate(-70,2) scale(1,1)"><path fill="none" stroke="#000000" d="M 826.0234375 205 L 850.0234375 205 L 850.0234375 229 L 826.0234375 229 L 826.0234375 205 Z Z" stroke-miterlimit="10"/></g><g transform="translate(-70,2) scale(1,1)"><path fill="none" stroke="#000000" d="M 826.0234375 205 L 850.0234375 229" stroke-miterlimit="10"/></g><g transform="translate(-70,2) scale(1,1)"><path fill="none" stroke="#000000" d="M 850.0234375 205 L 826.0234375 229" stroke-miterlimit="10"/></g><g transform="translate(-70,2) scale(1,1)"><path fill="none" stroke="#000000" d="M 592 242 L 855.0234375 242" stroke-miterlimit="10"/></g><g transform="translate(-70,2) scale(1,1)"><path fill="none" stroke="#000000" d="M 592 266 L 855.0234375 266" stroke-miterlimit="10"/></g><g transform="translate(-70,2) scale(1,1)"><g><path fill="none" stroke="none"/><text fill="#000000" stroke="none" font-family="Times New Roman" font-size="14px" font-style="italic" font-weight="bold" text-decoration="none" x="670.28759765625" y="218.5">SQLDataBase</text></g></g><g transform="translate(-70,2) scale(1,1)"><g><path fill="none" stroke="none"/><text fill="#000000" stroke="none" font-family="Times New Roman" font-size="14px" font-style="normal" font-weight="normal" text-decoration="none" x="667.39599609375" y="234.5">(from database)</text></g></g><g transform="translate(-70,2) scale(1,1)"><g><path fill="none" stroke="none"/><text fill="#000000" stroke="none" font-family="Times New Roman" font-size="14px" font-style="normal" font-weight="normal" text-decoration="none" x="597" y="258.5">-__dbconfig: Dict[str, Any]</text></g></g><g transform="translate(-70,2) scale(1,1)"><g><path fill="none" stroke="none"/><text fill="#000000" stroke="none" font-family="Times New Roman" font-size="14px" font-style="normal" font-weight="normal" text-decoration="none" x="597" y="282.5">+__init__(**dbconfig: Any)</text></g></g><g transform="translate(-70,2) scale(1,1)"><g><path fill="none" stroke="none"/><text fill="#000000" stroke="none" font-family="Times New Roman" font-size="14px" font-style="italic" font-weight="normal" text-decoration="none" x="597" y="298.5">+dbconfig(): Dict[str, Any] {query}</text></g></g><g transform="translate(-70,2) scale(1,1)"><g><path fill="none" stroke="none"/><text fill="#000000" stroke="none" font-family="Times New Roman" font-size="14px" font-style="italic" font-weight="normal" text-decoration="none" x="597" y="314.5">+set_dbconfig(new_dbconfig: Dict[str, Any])</text></g></g><g transform="translate(-70,2) scale(1,1)"><g><path fill="none" stroke="none"/><text fill="#000000" stroke="none" font-family="Times New Roman" font-size="14px" font-style="italic" font-weight="normal" text-decoration="none" x="597" y="330.5">+__repr__(): str {query}</text></g></g><g transform="translate(-70,2) scale(1,1)"><g><path fill="none" stroke="none"/><text fill="#000000" stroke="none" font-family="Times New Roman" font-size="14px" font-style="italic" font-weight="normal" text-decoration="none" x="597" y="346.5">#_get_info_about_server(): str {query}</text></g></g><g transform="translate(-70,2) scale(1,1)"><g><path fill="none" stroke="none"/><text fill="#000000" stroke="none" font-family="Times New Roman" font-size="14px" font-style="italic" font-weight="normal" text-decoration="none" x="597" y="362.5">#_get_info_about_connection(): str {query}</text></g></g><g transform="translate(-70,2) scale(1,1)"><path fill="none" stroke="#000000" d="M 486 448 L 728 448 L 728 368" stroke-miterlimit="10"/></g><g transform="translate(-70,2) scale(1,1)"><path fill="#FFFFFF" stroke="none" d="M 736.419035512032 388.3253497152483 L 728 368 L 719.580964487968 388.3253497152483"/></g><g transform="translate(-70,2) scale(1,1)"><path fill="none" stroke="#000000" d="M 736.419035512032 388.3253497152483 L 728 368 L 719.580964487968 388.3253497152483 L 736.419035512032 388.3253497152483" stroke-miterlimit="10"/></g><g transform="translate(-70,2) scale(1,1)"><path fill="none" stroke="#000000" d="M 928 448 L 728 448 L 728 368" stroke-miterlimit="10"/></g><g transform="translate(-70,2) scale(1,1)"><path fill="#FFFFFF" stroke="none" d="M 736.419035512032 388.3253497152483 L 728 368 L 719.580964487968 388.3253497152483"/></g><g transform="translate(-70,2) scale(1,1)"><path fill="none" stroke="#000000" d="M 736.419035512032 388.3253497152483 L 728 368 L 719.580964487968 388.3253497152483 L 736.419035512032 388.3253497152483" stroke-miterlimit="10"/></g><g transform="translate(-70,2) scale(1,1)"><rect fill="#C0C0C0" stroke="none" x="887" y="631" width="464.328125" height="95" opacity="0.2"/></g><g transform="translate(-70,2) scale(1,1)"><rect fill="#ffffff" stroke="none" x="880" y="624" width="464.328125" height="95"/></g><g transform="translate(-70,2) scale(1,1)"><path fill="none" stroke="#000000" d="M 880 624 L 1344.328125 624 L 1344.328125 719 L 880 719 L 880 624 Z Z" stroke-miterlimit="10"/></g><g transform="translate(-70,2) scale(1,1)"><path fill="#ffffff" stroke="none" d="M 1318.328125 641 C 1318.328125 636.0294368 1322.3575618 632 1327.328125 632 C 1332.2986882 632 1336.328125 636.0294368 1336.328125 641 C 1336.328125 645.9705632 1332.2986882 650 1327.328125 650 C 1322.3575618 650 1318.328125 645.9705632 1318.328125 641 Z"/></g><g transform="translate(-70,2) scale(1,1)"><path fill="none" stroke="#000000" d="M 1318.328125 641 C 1318.328125 636.0294368 1322.3575618 632 1327.328125 632 C 1332.2986882 632 1336.328125 636.0294368 1336.328125 641 C 1336.328125 645.9705632 1332.2986882 650 1327.328125 650 C 1322.3575618 650 1318.328125 645.9705632 1318.328125 641 Z" stroke-miterlimit="10"/></g><g transform="translate(-70,2) scale(1,1)"><path fill="none" stroke="#000000" d="M 880 680 L 1344.328125 680" stroke-miterlimit="10"/></g><g transform="translate(-70,2) scale(1,1)"><g><path fill="none" stroke="none"/><text fill="#000000" stroke="none" font-family="Times New Roman" font-size="14px" font-style="normal" font-weight="normal" text-decoration="none" x="1068.6845703125" y="640.5">«interface»</text></g></g><g transform="translate(-70,2) scale(1,1)"><g><path fill="none" stroke="none"/><text fill="#000000" stroke="none" font-family="Times New Roman" font-size="14px" font-style="italic" font-weight="bold" text-decoration="none" x="1027.0537109375" y="656.5">PoolConnectionInterface</text></g></g><g transform="translate(-70,2) scale(1,1)"><g><path fill="none" stroke="none"/><text fill="#000000" stroke="none" font-family="Times New Roman" font-size="14px" font-style="normal" font-weight="normal" text-decoration="none" x="1056.04833984375" y="672.5">(from database)</text></g></g><g transform="translate(-70,2) scale(1,1)"><g><path fill="none" stroke="none"/><text fill="#000000" stroke="none" font-family="Times New Roman" font-size="14px" font-style="italic" font-weight="normal" text-decoration="none" x="885" y="696.5">«abstractmethod»+create_connection_pool(): ConnectionPoolType {query}</text></g></g><g transform="translate(-70,2) scale(1,1)"><g><path fill="none" stroke="none"/><text fill="#000000" stroke="none" font-family="Times New Roman" font-size="14px" font-style="italic" font-weight="normal" text-decoration="none" x="885" y="712.5">«abstractmethod»+get_connection_from_pool(): PooledConnectionType {query}</text></g></g><g transform="translate(-70,2) scale(1,1)"><path fill="none" stroke="#000000" d="M 1104 536 L 1104 624" stroke-miterlimit="10" stroke-dasharray="3"/></g><g transform="translate(-70,2) scale(1,1)"><path fill="#FFFFFF" stroke="none" d="M 1095.580964487968 603.6746502847517 L 1104 624 L 1112.419035512032 603.6746502847517"/></g><g transform="translate(-70,2) scale(1,1)"><path fill="none" stroke="#000000" d="M 1095.580964487968 603.6746502847517 L 1104 624 L 1112.419035512032 603.6746502847517 L 1095.580964487968 603.6746502847517" stroke-miterlimit="10"/></g><g transform="translate(-70,2) scale(1,1)"><path fill="none" stroke="#000000" d="M 320 488 L 320 584" stroke-miterlimit="10" stroke-dasharray="3"/></g><g transform="translate(-70,2) scale(1,1)"><path fill="#FFFFFF" stroke="none" d="M 311.580964487968 563.6746502847517 L 320 584 L 328.419035512032 563.6746502847517"/></g><g transform="translate(-70,2) scale(1,1)"><path fill="none" stroke="#000000" d="M 311.580964487968 563.6746502847517 L 320 584 L 328.419035512032 563.6746502847517 L 311.580964487968 563.6746502847517" stroke-miterlimit="10"/></g><g transform="translate(-70,2) scale(1,1)"><rect fill="#C0C0C0" stroke="none" x="87" y="591" width="465.8798828125" height="95" opacity="0.2"/></g><g transform="translate(-70,2) scale(1,1)"><rect fill="#ffffff" stroke="none" x="80" y="584" width="465.8798828125" height="95"/></g><g transform="translate(-70,2) scale(1,1)"><path fill="none" stroke="#000000" d="M 80 584 L 545.8798828125 584 L 545.8798828125 679 L 80 679 L 80 584 Z Z" stroke-miterlimit="10"/></g><g transform="translate(-70,2) scale(1,1)"><path fill="#ffffff" stroke="none" d="M 519.8798828125 601 C 519.8798828125 596.0294368 523.9093196125 592 528.8798828125 592 C 533.8504460125 592 537.8798828125 596.0294368 537.8798828125 601 C 537.8798828125 605.9705632 533.8504460125 610 528.8798828125 610 C 523.9093196125 610 519.8798828125 605.9705632 519.8798828125 601 Z"/></g><g transform="translate(-70,2) scale(1,1)"><path fill="none" stroke="#000000" d="M 519.8798828125 601 C 519.8798828125 596.0294368 523.9093196125 592 528.8798828125 592 C 533.8504460125 592 537.8798828125 596.0294368 537.8798828125 601 C 537.8798828125 605.9705632 533.8504460125 610 528.8798828125 610 C 523.9093196125 610 519.8798828125 605.9705632 519.8798828125 601 Z" stroke-miterlimit="10"/></g><g transform="translate(-70,2) scale(1,1)"><path fill="none" stroke="#000000" d="M 80 640 L 545.8798828125 640" stroke-miterlimit="10"/></g><g transform="translate(-70,2) scale(1,1)"><g><path fill="none" stroke="none"/><text fill="#000000" stroke="none" font-family="Times New Roman" font-size="14px" font-style="normal" font-weight="normal" text-decoration="none" x="269.46044921875" y="600.5">«interface»</text></g></g><g transform="translate(-70,2) scale(1,1)"><g><path fill="none" stroke="none"/><text fill="#000000" stroke="none" font-family="Times New Roman" font-size="14px" font-style="italic" font-weight="bold" text-decoration="none" x="222.767578125" y="616.5">SingleConnectionInterface</text></g></g><g transform="translate(-70,2) scale(1,1)"><g><path fill="none" stroke="none"/><text fill="#000000" stroke="none" font-family="Times New Roman" font-size="14px" font-style="normal" font-weight="normal" text-decoration="none" x="256.82421875" y="632.5">(from database)</text></g></g><g transform="translate(-70,2) scale(1,1)"><g><path fill="none" stroke="none"/><text fill="#000000" stroke="none" font-family="Times New Roman" font-size="14px" font-style="italic" font-weight="normal" text-decoration="none" x="85" y="656.5">«abstractmethod»+create_connection_with_database(): ConnectionType {query}</text></g></g><g transform="translate(-70,2) scale(1,1)"><g><path fill="none" stroke="none"/><text fill="#000000" stroke="none" font-family="Times New Roman" font-size="14px" font-style="italic" font-weight="normal" text-decoration="none" x="85" y="672.5">«abstractmethod»+get_connection_with_database(): ConnectionType {query}</text></g></g><g transform="translate(-70,2) scale(1,1)"><rect fill="#C0C0C0" stroke="none" x="1447" y="391" width="223.9697265625" height="151" opacity="0.2"/></g><g transform="translate(-70,2) scale(1,1)"><rect fill="#ffffff" stroke="none" x="1440" y="384" width="223.9697265625" height="151"/></g><g transform="translate(-70,2) scale(1,1)"><path fill="none" stroke="#000000" d="M 1440 384 L 1663.9697265625 384 L 1663.9697265625 535 L 1440 535 L 1440 384 Z Z" stroke-miterlimit="10"/></g><g transform="translate(-70,2) scale(1,1)"><path fill="none" stroke="#000000" d="M 1634.9697265625 389 L 1658.9697265625 389 L 1658.9697265625 413 L 1634.9697265625 413 L 1634.9697265625 389 Z Z" stroke-miterlimit="10"/></g><g transform="translate(-70,2) scale(1,1)"><path fill="none" stroke="#000000" d="M 1634.9697265625 389 L 1658.9697265625 413" stroke-miterlimit="10"/></g><g transform="translate(-70,2) scale(1,1)"><path fill="none" stroke="#000000" d="M 1658.9697265625 389 L 1634.9697265625 413" stroke-miterlimit="10"/></g><g transform="translate(-70,2) scale(1,1)"><path fill="none" stroke="#000000" d="M 1440 456 L 1663.9697265625 456" stroke-miterlimit="10"/></g><g transform="translate(-70,2) scale(1,1)"><path fill="none" stroke="#000000" d="M 1440 512 L 1663.9697265625 512" stroke-miterlimit="10"/></g><g transform="translate(-70,2) scale(1,1)"><g><path fill="none" stroke="none"/><text fill="#000000" stroke="none" font-family="Times New Roman" font-size="14px" font-style="normal" font-weight="normal" text-decoration="none" x="1468.265625" y="400.5">«dataclass(frozen=True)»</text></g></g><g transform="translate(-70,2) scale(1,1)"><g><path fill="none" stroke="none"/><text fill="#000000" stroke="none" font-family="Times New Roman" font-size="14px" font-style="normal" font-weight="bold" text-decoration="none" x="1491.49755859375" y="416.5">PoolConfigDTO</text></g></g><g transform="translate(-70,2) scale(1,1)"><g><path fill="none" stroke="none"/><text fill="#000000" stroke="none" font-family="Times New Roman" font-size="14px" font-style="normal" font-weight="normal" text-decoration="none" x="1483.8173828125" y="432.5">(from project_code)</text></g></g><g transform="translate(-70,2) scale(1,1)"><g><path fill="none" stroke="none"/><text fill="#000000" stroke="none" font-family="Times New Roman" font-size="14px" font-style="normal" font-weight="normal" text-decoration="none" x="1600.55078125" y="448.5">{leaf}</text></g></g><g transform="translate(-70,2) scale(1,1)"><g><path fill="none" stroke="none"/><text fill="#000000" stroke="none" font-family="Times New Roman" font-size="14px" font-style="normal" font-weight="normal" text-decoration="none" x="1445" y="472.5">+pool_name: str {readOnly}</text></g></g><g transform="translate(-70,2) scale(1,1)"><g><path fill="none" stroke="none"/><text fill="#000000" stroke="none" font-family="Times New Roman" font-size="14px" font-style="normal" font-weight="normal" text-decoration="none" x="1445" y="488.5">+pool_size: int {readOnly}</text></g></g><g transform="translate(-70,2) scale(1,1)"><g><path fill="none" stroke="none"/><text fill="#000000" stroke="none" font-family="Times New Roman" font-size="14px" font-style="normal" font-weight="normal" text-decoration="none" x="1445" y="504.5">+pool_reset_session: bool {readOnly}</text></g></g><g transform="translate(-70,2) scale(1,1)"><g><path fill="none" stroke="none"/><text fill="#000000" stroke="none" font-family="Times New Roman" font-size="14px" font-style="normal" font-weight="normal" text-decoration="none" x="1445" y="528.5">+__post_init__() {query}</text></g></g><g transform="translate(-70,2) scale(1,1)"><rect fill="#C0C0C0" stroke="none" x="423" y="15" width="653.177734375" height="111" opacity="0.2"/></g><g transform="translate(-70,2) scale(1,1)"><rect fill="#ffffff" stroke="none" x="416" y="8" width="653.177734375" height="111"/></g><g transform="translate(-70,2) scale(1,1)"><path fill="none" stroke="#000000" d="M 416 8 L 1069.177734375 8 L 1069.177734375 119 L 416 119 L 416 8 Z Z" stroke-miterlimit="10"/></g><g transform="translate(-70,2) scale(1,1)"><path fill="#ffffff" stroke="none" d="M 1043.177734375 25 C 1043.177734375 20.0294368 1047.207171175 16 1052.177734375 16 C 1057.148297575 16 1061.177734375 20.0294368 1061.177734375 25 C 1061.177734375 29.9705632 1057.148297575 34 1052.177734375 34 C 1047.207171175 34 1043.177734375 29.9705632 1043.177734375 25 Z"/></g><g transform="translate(-70,2) scale(1,1)"><path fill="none" stroke="#000000" d="M 1043.177734375 25 C 1043.177734375 20.0294368 1047.207171175 16 1052.177734375 16 C 1057.148297575 16 1061.177734375 20.0294368 1061.177734375 25 C 1061.177734375 29.9705632 1057.148297575 34 1052.177734375 34 C 1047.207171175 34 1043.177734375 29.9705632 1043.177734375 25 Z" stroke-miterlimit="10"/></g><g transform="translate(-70,2) scale(1,1)"><path fill="none" stroke="#000000" d="M 416 64 L 1069.177734375 64" stroke-miterlimit="10"/></g><g transform="translate(-70,2) scale(1,1)"><g><path fill="none" stroke="none"/><text fill="#000000" stroke="none" font-family="Times New Roman" font-size="14px" font-style="normal" font-weight="normal" text-decoration="none" x="699.109375" y="24.5">«interface»</text></g></g><g transform="translate(-70,2) scale(1,1)"><g><path fill="none" stroke="none"/><text fill="#000000" stroke="none" font-family="Times New Roman" font-size="14px" font-style="italic" font-weight="bold" text-decoration="none" x="679.2578125" y="40.5">SQLAPIInterface</text></g></g><g transform="translate(-70,2) scale(1,1)"><g><path fill="none" stroke="none"/><text fill="#000000" stroke="none" font-family="Times New Roman" font-size="14px" font-style="normal" font-weight="normal" text-decoration="none" x="702.01806640625" y="56.5">(from api)</text></g></g><g transform="translate(-70,2) scale(1,1)"><g><path fill="none" stroke="none"/><text fill="#000000" stroke="none" font-family="Times New Roman" font-size="14px" font-style="italic" font-weight="normal" text-decoration="none" x="421" y="80.5">«abstractmethod»+execute_query_no_returns(sql_query: str, *query_data: Tuple[Any, ...]) {query}</text></g></g><g transform="translate(-70,2) scale(1,1)"><g><path fill="none" stroke="none"/><text fill="#000000" stroke="none" font-family="Times New Roman" font-size="14px" font-style="italic" font-weight="normal" text-decoration="none" x="421" y="96.5">«abstractmethod»+execute_query_returns_one(sql_query: str, *query_data: Tuple[Any, ...]): Any {query}</text></g></g><g transform="translate(-70,2) scale(1,1)"><g><path fill="none" stroke="none"/><text fill="#000000" stroke="none" font-family="Times New Roman" font-size="14px" font-style="italic" font-weight="normal" text-decoration="none" x="421" y="112.5">«abstractmethod»+execute_query_returns_all(sql_query: str, *query_data: Tuple[Any, ...]): Iterable[Any] {query}</text></g></g><g transform="translate(-70,2) scale(1,1)"><path fill="none" stroke="#000000" d="M 728 200 L 728 119" stroke-miterlimit="10" stroke-dasharray="3"/></g><g transform="translate(-70,2) scale(1,1)"><path fill="#FFFFFF" stroke="none" d="M 736.419035512032 139.3253497152483 L 728 119 L 719.580964487968 139.3253497152483"/></g><g transform="translate(-70,2) scale(1,1)"><path fill="none" stroke="#000000" d="M 736.419035512032 139.3253497152483 L 728 119 L 719.580964487968 139.3253497152483 L 736.419035512032 139.3253497152483" stroke-miterlimit="10"/></g><g transform="translate(-70,2) scale(1,1)"><path fill="none" stroke="#000000" d="M 336 384 L 336 64 L 416 64" stroke-miterlimit="10" stroke-dasharray="3"/></g><g transform="translate(-70,2) scale(1,1)"><path fill="none" stroke="#000000" d="M 405.83732514237585 68.20951775601598 L 416 64 L 405.83732514237585 59.790482243984016" stroke-miterlimit="10"/></g><g transform="translate(-70,2) scale(1,1)"><g><path fill="none" stroke="none"/><text fill="#000000" stroke="none" font-family="Times New Roman" font-size="14px" font-style="normal" font-weight="normal" text-decoration="none" x="338.44775390625" y="240">use</text></g></g><g transform="translate(-70,2) scale(1,1)"><path fill="none" stroke="#000000" d="M 1128 384 L 1128 64 L 1069 64" stroke-miterlimit="10" stroke-dasharray="3"/></g><g transform="translate(-70,2) scale(1,1)"><path fill="none" stroke="#000000" d="M 1079.162674857624 59.790482243984016 L 1069 64 L 1079.162674857624 68.20951775601598" stroke-miterlimit="10"/></g><g transform="translate(-70,2) scale(1,1)"><g><path fill="none" stroke="none"/><text fill="#000000" stroke="none" font-family="Times New Roman" font-size="14px" font-style="normal" font-weight="normal" text-decoration="none" x="1130.44775390625" y="240">use</text></g></g><g transform="translate(-70,2) scale(1,1)"><path fill="none" stroke="#000000" d="M 1272 460 L 1439 459" stroke-miterlimit="10"/></g><g transform="translate(-70,2) scale(1,1)"><path fill="none" stroke="#000000" d="M 1422.8628211437513 463.3062230379911 L 1433.0001075664 459.0359274996024 L 1422.8124086612495 454.88733846018255" stroke-miterlimit="10"/></g><g transform="translate(-70,2) scale(1,1)"><path fill="#000000" stroke="none" d="M 1433.0000537832 459.0179637498012 C 1433.0000537832 457.3611093498012 1434.3431993832 456.0179637498012 1436.0000537832 456.0179637498012 C 1437.6569081832 456.0179637498012 1439.0000537832 457.3611093498012 1439.0000537832 459.0179637498012 C 1439.0000537832 460.6748181498012 1437.6569081832 462.0179637498012 1436.0000537832 462.0179637498012 C 1434.3431993832 462.0179637498012 1433.0000537832 460.6748181498012 1433.0000537832 459.0179637498012 Z"/></g><g transform="translate(-70,2) scale(1,1)"><g><path fill="none" stroke="none"/><text fill="#000000" stroke="none" font-family="Times New Roman" font-size="14px" font-style="normal" font-weight="normal" text-decoration="none" x="1341.3896484375" y="449.5">-__pool_config</text></g></g></g></svg>