<svg version="1.1" xmlns="http://www.w3.org/2000/svg" xmlns:xlink="http://www.w3.org/1999/xlink" width="1645.765625" height="755"><defs/><g><g transform="translate(-86,10) scale(1,1)"><rect fill="#C0C0C0" stroke="none" x="959" y="383" width="389.1806640625" height="167" opacity="0.2"/></g><g transform="translate(-86,10) scale(1,1)"><rect fill="#ffffff" stroke="none" x="952" y="376" width="389.1806640625" height="167"/></g><g transform="translate(-86,10) scale(1,1)"><path fill="none" stroke="#000000" d="M 952 376 L 1341.1806640625 376 L 1341.1806640625 543 L 952 543 L 952 376 Z Z" stroke-miterlimit="10"/></g><g transform="translate(-86,10) scale(1,1)"><path fill="none" stroke="#000000" d="M 1312.1806640625 381 L 1336.1806640625 381 L 1336.1806640625 405 L 1312.1806640625 405 L 1312.1806640625 381 Z Z" stroke-miterlimit="10"/></g><g transform="translate(-86,10) scale(1,1)"><path fill="none" stroke="#000000" d="M 1312.1806640625 381 L 1336.1806640625 405" stroke-miterlimit="10"/></g><g transform="translate(-86,10) scale(1,1)"><path fill="none" stroke="#000000" d="M 1336.1806640625 381 L 1312.1806640625 405" stroke-miterlimit="10"/></g><g transform="translate(-86,10) scale(1,1)"><path fill="none" stroke="#000000" d="M 952 448 L 1341.1806640625 448" stroke-miterlimit="10"/></g><g transform="translate(-86,10) scale(1,1)"><path fill="none" stroke="#000000" d="M 952 488 L 1341.1806640625 488" stroke-miterlimit="10"/></g><g transform="translate(-86,10) scale(1,1)"><g><path fill="none" stroke="none"/><text fill="#000000" stroke="none" font-family="Times New Roman" font-size="14px" font-style="normal" font-weight="normal" text-decoration="none" x="1134.59033203125" y="387.5"></text></g></g><g transform="translate(-86,10) scale(1,1)"><g><path fill="none" stroke="none"/><text fill="#000000" stroke="none" font-family="Times New Roman" font-size="14px" font-style="normal" font-weight="bold" text-decoration="none" x="1068.86962890625" y="408.5">MySQLDataBasePool</text></g></g><g transform="translate(-86,10) scale(1,1)"><g><path fill="none" stroke="none"/><text fill="#000000" stroke="none" font-family="Times New Roman" font-size="14px" font-style="normal" font-weight="normal" text-decoration="none" x="1090.474609375" y="424.5">(from database)</text></g></g><g transform="translate(-86,10) scale(1,1)"><g><path fill="none" stroke="none"/><text fill="#000000" stroke="none" font-family="Times New Roman" font-size="14px" font-style="normal" font-weight="normal" text-decoration="none" x="1277.76171875" y="440.5">{leaf}</text></g></g><g transform="translate(-86,10) scale(1,1)"><g><path fill="none" stroke="none"/><text fill="#000000" stroke="none" font-family="Times New Roman" font-size="14px" font-style="normal" font-weight="normal" text-decoration="none" x="957" y="464.5">-__pool: MySQLConnectionPool</text></g></g><g transform="translate(-86,10) scale(1,1)"><g><path fill="none" stroke="none"/><text fill="#000000" stroke="none" font-family="Times New Roman" font-size="14px" font-style="normal" font-weight="normal" text-decoration="none" x="957" y="480.5">-__pool_config: MySQLPoolConfigDTO</text></g></g><g transform="translate(-86,10) scale(1,1)"><g><path fill="none" stroke="none"/><text fill="#000000" stroke="none" font-family="Times New Roman" font-size="14px" font-style="normal" font-weight="normal" text-decoration="none" x="957" y="504.5">+__init__(pool_config: MySQLPoolConfigDTO, **dbconfig)</text></g></g><g transform="translate(-86,10) scale(1,1)"><g><path fill="none" stroke="none"/><text fill="#000000" stroke="none" font-family="Times New Roman" font-size="14px" font-style="normal" font-weight="normal" text-decoration="none" x="957" y="520.5">#_get_info_about_pool(): Dict[str, Any] {query}</text></g></g><g transform="translate(-86,10) scale(1,1)"><g><path fill="none" stroke="none"/><text fill="#000000" stroke="none" font-family="Times New Roman" font-size="14px" font-style="normal" font-weight="normal" text-decoration="none" x="957" y="536.5">«property»+pool_config() {query}</text></g></g><g transform="translate(-86,10) scale(1,1)"><rect fill="#C0C0C0" stroke="none" x="127" y="391" width="389.666015625" height="135" opacity="0.2"/></g><g transform="translate(-86,10) scale(1,1)"><rect fill="#ffffff" stroke="none" x="120" y="384" width="389.666015625" height="135"/></g><g transform="translate(-86,10) scale(1,1)"><path fill="none" stroke="#000000" d="M 120 384 L 509.666015625 384 L 509.666015625 519 L 120 519 L 120 384 Z Z" stroke-miterlimit="10"/></g><g transform="translate(-86,10) scale(1,1)"><path fill="none" stroke="#000000" d="M 480.666015625 389 L 504.666015625 389 L 504.666015625 413 L 480.666015625 413 L 480.666015625 389 Z Z" stroke-miterlimit="10"/></g><g transform="translate(-86,10) scale(1,1)"><path fill="none" stroke="#000000" d="M 480.666015625 389 L 504.666015625 413" stroke-miterlimit="10"/></g><g transform="translate(-86,10) scale(1,1)"><path fill="none" stroke="#000000" d="M 504.666015625 389 L 480.666015625 413" stroke-miterlimit="10"/></g><g transform="translate(-86,10) scale(1,1)"><path fill="none" stroke="#000000" d="M 120 456 L 509.666015625 456" stroke-miterlimit="10"/></g><g transform="translate(-86,10) scale(1,1)"><path fill="none" stroke="#000000" d="M 120 480 L 509.666015625 480" stroke-miterlimit="10"/></g><g transform="translate(-86,10) scale(1,1)"><g><path fill="none" stroke="none"/><text fill="#000000" stroke="none" font-family="Times New Roman" font-size="14px" font-style="normal" font-weight="normal" text-decoration="none" x="302.8330078125" y="395.5"></text></g></g><g transform="translate(-86,10) scale(1,1)"><g><path fill="none" stroke="none"/><text fill="#000000" stroke="none" font-family="Times New Roman" font-size="14px" font-style="normal" font-weight="bold" text-decoration="none" x="232.05029296875" y="416.5">MySQLDataBaseSingle</text></g></g><g transform="translate(-86,10) scale(1,1)"><g><path fill="none" stroke="none"/><text fill="#000000" stroke="none" font-family="Times New Roman" font-size="14px" font-style="normal" font-weight="normal" text-decoration="none" x="258.71728515625" y="432.5">(from database)</text></g></g><g transform="translate(-86,10) scale(1,1)"><g><path fill="none" stroke="none"/><text fill="#000000" stroke="none" font-family="Times New Roman" font-size="14px" font-style="normal" font-weight="normal" text-decoration="none" x="446.2470703125" y="448.5">{leaf}</text></g></g><g transform="translate(-86,10) scale(1,1)"><g><path fill="none" stroke="none"/><text fill="#000000" stroke="none" font-family="Times New Roman" font-size="14px" font-style="normal" font-weight="normal" text-decoration="none" x="125" y="472.5">-__connection_with_database: MySQLConnection</text></g></g><g transform="translate(-86,10) scale(1,1)"><g><path fill="none" stroke="none"/><text fill="#000000" stroke="none" font-family="Times New Roman" font-size="14px" font-style="normal" font-weight="normal" text-decoration="none" x="125" y="496.5">+__init__(**dbconfig)</text></g></g><g transform="translate(-86,10) scale(1,1)"><g><path fill="none" stroke="none"/><text fill="#000000" stroke="none" font-family="Times New Roman" font-size="14px" font-style="normal" font-weight="normal" text-decoration="none" x="125" y="512.5">#_get_info_about_connection(): Dict[str, Any] {query}</text></g></g><g transform="translate(-86,10) scale(1,1)"><rect fill="#C0C0C0" stroke="none" x="559" y="199" width="356.142578125" height="183" opacity="0.2"/></g><g transform="translate(-86,10) scale(1,1)"><rect fill="#ffffff" stroke="none" x="552" y="192" width="356.142578125" height="183"/></g><g transform="translate(-86,10) scale(1,1)"><path fill="none" stroke="#000000" d="M 552 192 L 908.142578125 192 L 908.142578125 375 L 552 375 L 552 192 Z Z" stroke-miterlimit="10"/></g><g transform="translate(-86,10) scale(1,1)"><path fill="none" stroke="#000000" d="M 879.142578125 197 L 903.142578125 197 L 903.142578125 221 L 879.142578125 221 L 879.142578125 197 Z Z" stroke-miterlimit="10"/></g><g transform="translate(-86,10) scale(1,1)"><path fill="none" stroke="#000000" d="M 879.142578125 197 L 903.142578125 221" stroke-miterlimit="10"/></g><g transform="translate(-86,10) scale(1,1)"><path fill="none" stroke="#000000" d="M 903.142578125 197 L 879.142578125 221" stroke-miterlimit="10"/></g><g transform="translate(-86,10) scale(1,1)"><path fill="none" stroke="#000000" d="M 552 248 L 908.142578125 248" stroke-miterlimit="10"/></g><g transform="translate(-86,10) scale(1,1)"><path fill="none" stroke="#000000" d="M 552 272 L 908.142578125 272" stroke-miterlimit="10"/></g><g transform="translate(-86,10) scale(1,1)"><g><path fill="none" stroke="none"/><text fill="#000000" stroke="none" font-family="Times New Roman" font-size="14px" font-style="normal" font-weight="normal" text-decoration="none" x="718.0712890625" y="203.5"></text></g></g><g transform="translate(-86,10) scale(1,1)"><g><path fill="none" stroke="none"/><text fill="#000000" stroke="none" font-family="Times New Roman" font-size="14px" font-style="italic" font-weight="bold" text-decoration="none" x="676.84716796875" y="224.5">SQLDataBase</text></g></g><g transform="translate(-86,10) scale(1,1)"><g><path fill="none" stroke="none"/><text fill="#000000" stroke="none" font-family="Times New Roman" font-size="14px" font-style="normal" font-weight="normal" text-decoration="none" x="673.95556640625" y="240.5">(from database)</text></g></g><g transform="translate(-86,10) scale(1,1)"><g><path fill="none" stroke="none"/><text fill="#000000" stroke="none" font-family="Times New Roman" font-size="14px" font-style="normal" font-weight="normal" text-decoration="none" x="557" y="264.5">-__dbconfig: Dict[str, Any]</text></g></g><g transform="translate(-86,10) scale(1,1)"><g><path fill="none" stroke="none"/><text fill="#000000" stroke="none" font-family="Times New Roman" font-size="14px" font-style="normal" font-weight="normal" text-decoration="none" x="557" y="288.5">+__init__(**dbconfig)</text></g></g><g transform="translate(-86,10) scale(1,1)"><g><path fill="none" stroke="none"/><text fill="#000000" stroke="none" font-family="Times New Roman" font-size="14px" font-style="normal" font-weight="normal" text-decoration="none" x="557" y="304.5">«property»+dbconfig(): Dict[str, Any] {query}</text></g></g><g transform="translate(-86,10) scale(1,1)"><g><path fill="none" stroke="none"/><text fill="#000000" stroke="none" font-family="Times New Roman" font-size="14px" font-style="normal" font-weight="normal" text-decoration="none" x="557" y="320.5">«dbconfig.setter»+dbconfig(new_dbconfig: Dict[str, Any])</text></g></g><g transform="translate(-86,10) scale(1,1)"><g><path fill="none" stroke="none"/><text fill="#000000" stroke="none" font-family="Times New Roman" font-size="14px" font-style="italic" font-weight="normal" text-decoration="none" x="557" y="336.5">«abstractmethod»+__str__(): str {query}</text></g></g><g transform="translate(-86,10) scale(1,1)"><g><path fill="none" stroke="none"/><text fill="#000000" stroke="none" font-family="Times New Roman" font-size="14px" font-style="italic" font-weight="normal" text-decoration="none" x="557" y="352.5">«abstractmethod»#_get_info_about_server(): str {query}</text></g></g><g transform="translate(-86,10) scale(1,1)"><g><path fill="none" stroke="none"/><text fill="#000000" stroke="none" font-family="Times New Roman" font-size="14px" font-style="normal" font-weight="normal" text-decoration="none" x="557" y="368.5">«abstractmethod»-__del__() {query}</text></g></g><g transform="translate(-86,10) scale(1,1)"><path fill="none" stroke="#000000" d="M 510 448 L 728 448 L 728 375" stroke-miterlimit="10"/></g><g transform="translate(-86,10) scale(1,1)"><path fill="#FFFFFF" stroke="none" d="M 736.419035512032 395.3253497152483 L 728 375 L 719.580964487968 395.3253497152483"/></g><g transform="translate(-86,10) scale(1,1)"><path fill="none" stroke="#000000" d="M 736.419035512032 395.3253497152483 L 728 375 L 719.580964487968 395.3253497152483 L 736.419035512032 395.3253497152483" stroke-miterlimit="10"/></g><g transform="translate(-86,10) scale(1,1)"><path fill="none" stroke="#000000" d="M 952 448 L 728 448 L 728 375" stroke-miterlimit="10"/></g><g transform="translate(-86,10) scale(1,1)"><path fill="#FFFFFF" stroke="none" d="M 736.419035512032 395.3253497152483 L 728 375 L 719.580964487968 395.3253497152483"/></g><g transform="translate(-86,10) scale(1,1)"><path fill="none" stroke="#000000" d="M 736.419035512032 395.3253497152483 L 728 375 L 719.580964487968 395.3253497152483 L 736.419035512032 395.3253497152483" stroke-miterlimit="10"/></g><g transform="translate(-86,10) scale(1,1)"><rect fill="#C0C0C0" stroke="none" x="919" y="631" width="464.328125" height="111" opacity="0.2"/></g><g transform="translate(-86,10) scale(1,1)"><rect fill="#ffffff" stroke="none" x="912" y="624" width="464.328125" height="111"/></g><g transform="translate(-86,10) scale(1,1)"><path fill="none" stroke="#000000" d="M 912 624 L 1376.328125 624 L 1376.328125 735 L 912 735 L 912 624 Z Z" stroke-miterlimit="10"/></g><g transform="translate(-86,10) scale(1,1)"><path fill="#ffffff" stroke="none" d="M 1350.328125 641 C 1350.328125 636.0294368 1354.3575618 632 1359.328125 632 C 1364.2986882 632 1368.328125 636.0294368 1368.328125 641 C 1368.328125 645.9705632 1364.2986882 650 1359.328125 650 C 1354.3575618 650 1350.328125 645.9705632 1350.328125 641 Z"/></g><g transform="translate(-86,10) scale(1,1)"><path fill="none" stroke="#000000" d="M 1350.328125 641 C 1350.328125 636.0294368 1354.3575618 632 1359.328125 632 C 1364.2986882 632 1368.328125 636.0294368 1368.328125 641 C 1368.328125 645.9705632 1364.2986882 650 1359.328125 650 C 1354.3575618 650 1350.328125 645.9705632 1350.328125 641 Z" stroke-miterlimit="10"/></g><g transform="translate(-86,10) scale(1,1)"><path fill="none" stroke="#000000" d="M 912 680 L 1376.328125 680" stroke-miterlimit="10"/></g><g transform="translate(-86,10) scale(1,1)"><g><path fill="none" stroke="none"/><text fill="#000000" stroke="none" font-family="Times New Roman" font-size="14px" font-style="normal" font-weight="normal" text-decoration="none" x="1100.6845703125" y="640.5">«interface»</text></g></g><g transform="translate(-86,10) scale(1,1)"><g><path fill="none" stroke="none"/><text fill="#000000" stroke="none" font-family="Times New Roman" font-size="14px" font-style="italic" font-weight="bold" text-decoration="none" x="1059.0537109375" y="656.5">PoolConnectionInterface</text></g></g><g transform="translate(-86,10) scale(1,1)"><g><path fill="none" stroke="none"/><text fill="#000000" stroke="none" font-family="Times New Roman" font-size="14px" font-style="normal" font-weight="normal" text-decoration="none" x="1088.04833984375" y="672.5">(from database)</text></g></g><g transform="translate(-86,10) scale(1,1)"><g><path fill="none" stroke="none"/><text fill="#000000" stroke="none" font-family="Times New Roman" font-size="14px" font-style="italic" font-weight="normal" text-decoration="none" x="917" y="696.5">«abstractmethod»+create_new_connection_pool()</text></g></g><g transform="translate(-86,10) scale(1,1)"><g><path fill="none" stroke="none"/><text fill="#000000" stroke="none" font-family="Times New Roman" font-size="14px" font-style="italic" font-weight="normal" text-decoration="none" x="917" y="712.5">«abstractmethod»+get_connection_from_pool(): PooledConnectionType {query}</text></g></g><g transform="translate(-86,10) scale(1,1)"><g><path fill="none" stroke="none"/><text fill="#000000" stroke="none" font-family="Times New Roman" font-size="14px" font-style="italic" font-weight="normal" text-decoration="none" x="917" y="728.5">«abstractmethod»+close_active_pool()</text></g></g><g transform="translate(-86,10) scale(1,1)"><path fill="none" stroke="#000000" d="M 1144 543 L 1144 624" stroke-miterlimit="10" stroke-dasharray="3"/></g><g transform="translate(-86,10) scale(1,1)"><path fill="#FFFFFF" stroke="none" d="M 1135.580964487968 603.6746502847517 L 1144 624 L 1152.419035512032 603.6746502847517"/></g><g transform="translate(-86,10) scale(1,1)"><path fill="none" stroke="#000000" d="M 1135.580964487968 603.6746502847517 L 1144 624 L 1152.419035512032 603.6746502847517 L 1135.580964487968 603.6746502847517" stroke-miterlimit="10"/></g><g transform="translate(-86,10) scale(1,1)"><path fill="none" stroke="#000000" d="M 320 519 L 320 584" stroke-miterlimit="10" stroke-dasharray="3"/></g><g transform="translate(-86,10) scale(1,1)"><path fill="#FFFFFF" stroke="none" d="M 311.580964487968 563.6746502847517 L 320 584 L 328.419035512032 563.6746502847517"/></g><g transform="translate(-86,10) scale(1,1)"><path fill="none" stroke="#000000" d="M 311.580964487968 563.6746502847517 L 320 584 L 328.419035512032 563.6746502847517 L 311.580964487968 563.6746502847517" stroke-miterlimit="10"/></g><g transform="translate(-86,10) scale(1,1)"><rect fill="#C0C0C0" stroke="none" x="103" y="591" width="448.5234375" height="111" opacity="0.2"/></g><g transform="translate(-86,10) scale(1,1)"><rect fill="#ffffff" stroke="none" x="96" y="584" width="448.5234375" height="111"/></g><g transform="translate(-86,10) scale(1,1)"><path fill="none" stroke="#000000" d="M 96 584 L 544.5234375 584 L 544.5234375 695 L 96 695 L 96 584 Z Z" stroke-miterlimit="10"/></g><g transform="translate(-86,10) scale(1,1)"><path fill="#ffffff" stroke="none" d="M 518.5234375 601 C 518.5234375 596.0294368 522.5528743 592 527.5234375 592 C 532.4940007 592 536.5234375 596.0294368 536.5234375 601 C 536.5234375 605.9705632 532.4940007 610 527.5234375 610 C 522.5528743 610 518.5234375 605.9705632 518.5234375 601 Z"/></g><g transform="translate(-86,10) scale(1,1)"><path fill="none" stroke="#000000" d="M 518.5234375 601 C 518.5234375 596.0294368 522.5528743 592 527.5234375 592 C 532.4940007 592 536.5234375 596.0294368 536.5234375 601 C 536.5234375 605.9705632 532.4940007 610 527.5234375 610 C 522.5528743 610 518.5234375 605.9705632 518.5234375 601 Z" stroke-miterlimit="10"/></g><g transform="translate(-86,10) scale(1,1)"><path fill="none" stroke="#000000" d="M 96 640 L 544.5234375 640" stroke-miterlimit="10"/></g><g transform="translate(-86,10) scale(1,1)"><g><path fill="none" stroke="none"/><text fill="#000000" stroke="none" font-family="Times New Roman" font-size="14px" font-style="normal" font-weight="normal" text-decoration="none" x="276.7822265625" y="600.5">«interface»</text></g></g><g transform="translate(-86,10) scale(1,1)"><g><path fill="none" stroke="none"/><text fill="#000000" stroke="none" font-family="Times New Roman" font-size="14px" font-style="italic" font-weight="bold" text-decoration="none" x="230.08935546875" y="616.5">SingleConnectionInterface</text></g></g><g transform="translate(-86,10) scale(1,1)"><g><path fill="none" stroke="none"/><text fill="#000000" stroke="none" font-family="Times New Roman" font-size="14px" font-style="normal" font-weight="normal" text-decoration="none" x="264.14599609375" y="632.5">(from database)</text></g></g><g transform="translate(-86,10) scale(1,1)"><g><path fill="none" stroke="none"/><text fill="#000000" stroke="none" font-family="Times New Roman" font-size="14px" font-style="italic" font-weight="normal" text-decoration="none" x="101" y="656.5">«abstractmethod»+create_new_connection_with_database()</text></g></g><g transform="translate(-86,10) scale(1,1)"><g><path fill="none" stroke="none"/><text fill="#000000" stroke="none" font-family="Times New Roman" font-size="14px" font-style="italic" font-weight="normal" text-decoration="none" x="101" y="672.5">«abstractmethod»+get_connection_with_database(): ConnectionType {query}</text></g></g><g transform="translate(-86,10) scale(1,1)"><g><path fill="none" stroke="none"/><text fill="#000000" stroke="none" font-family="Times New Roman" font-size="14px" font-style="italic" font-weight="normal" text-decoration="none" x="101" y="688.5">«abstractmethod»+close_active_connection_with_database()</text></g></g><g transform="translate(-86,10) scale(1,1)"><rect fill="#C0C0C0" stroke="none" x="1487" y="423" width="188.2021484375" height="71" opacity="0.2"/></g><g transform="translate(-86,10) scale(1,1)"><rect fill="#ffffff" stroke="none" x="1480" y="416" width="188.2021484375" height="71"/></g><g transform="translate(-86,10) scale(1,1)"><path fill="none" stroke="#000000" d="M 1480 416 L 1668.2021484375 416 L 1668.2021484375 487 L 1480 487 L 1480 416 Z Z" stroke-miterlimit="10"/></g><g transform="translate(-86,10) scale(1,1)"><path fill="none" stroke="#000000" d="M 1639.2021484375 421 L 1663.2021484375 421 L 1663.2021484375 445 L 1639.2021484375 445 L 1639.2021484375 421 Z Z" stroke-miterlimit="10"/></g><g transform="translate(-86,10) scale(1,1)"><path fill="none" stroke="#000000" d="M 1639.2021484375 421 L 1663.2021484375 445" stroke-miterlimit="10"/></g><g transform="translate(-86,10) scale(1,1)"><path fill="none" stroke="#000000" d="M 1663.2021484375 421 L 1639.2021484375 445" stroke-miterlimit="10"/></g><g transform="translate(-86,10) scale(1,1)"><g><path fill="none" stroke="none"/><text fill="#000000" stroke="none" font-family="Times New Roman" font-size="14px" font-style="normal" font-weight="normal" text-decoration="none" x="1562.10107421875" y="427.5"></text></g></g><g transform="translate(-86,10) scale(1,1)"><g><path fill="none" stroke="none"/><text fill="#000000" stroke="none" font-family="Times New Roman" font-size="14px" font-style="normal" font-weight="bold" text-decoration="none" x="1489.5" y="448.5">MySQLPoolConfigDTO</text></g></g><g transform="translate(-86,10) scale(1,1)"><g><path fill="none" stroke="none"/><text fill="#000000" stroke="none" font-family="Times New Roman" font-size="14px" font-style="normal" font-weight="normal" text-decoration="none" x="1524.19921875" y="464.5">(from config)</text></g></g><g transform="translate(-86,10) scale(1,1)"><g><path fill="none" stroke="none"/><text fill="#000000" stroke="none" font-family="Times New Roman" font-size="14px" font-style="normal" font-weight="normal" text-decoration="none" x="1604.783203125" y="480.5">{leaf}</text></g></g><g transform="translate(-86,10) scale(1,1)"><rect fill="#C0C0C0" stroke="none" x="375" y="7" width="716.6630859375" height="111" opacity="0.2"/></g><g transform="translate(-86,10) scale(1,1)"><rect fill="#ffffff" stroke="none" x="368" y="0" width="716.6630859375" height="111"/></g><g transform="translate(-86,10) scale(1,1)"><path fill="none" stroke="#000000" d="M 368 0 L 1084.6630859375 0 L 1084.6630859375 111 L 368 111 L 368 0 Z Z" stroke-miterlimit="10"/></g><g transform="translate(-86,10) scale(1,1)"><path fill="#ffffff" stroke="none" d="M 1058.6630859375 17 C 1058.6630859375 12.0294368 1062.6925227375 8 1067.6630859375 8 C 1072.6336491375 8 1076.6630859375 12.0294368 1076.6630859375 17 C 1076.6630859375 21.9705632 1072.6336491375 26 1067.6630859375 26 C 1062.6925227375 26 1058.6630859375 21.9705632 1058.6630859375 17 Z"/></g><g transform="translate(-86,10) scale(1,1)"><path fill="none" stroke="#000000" d="M 1058.6630859375 17 C 1058.6630859375 12.0294368 1062.6925227375 8 1067.6630859375 8 C 1072.6336491375 8 1076.6630859375 12.0294368 1076.6630859375 17 C 1076.6630859375 21.9705632 1072.6336491375 26 1067.6630859375 26 C 1062.6925227375 26 1058.6630859375 21.9705632 1058.6630859375 17 Z" stroke-miterlimit="10"/></g><g transform="translate(-86,10) scale(1,1)"><path fill="none" stroke="#000000" d="M 368 56 L 1084.6630859375 56" stroke-miterlimit="10"/></g><g transform="translate(-86,10) scale(1,1)"><g><path fill="none" stroke="none"/><text fill="#000000" stroke="none" font-family="Times New Roman" font-size="14px" font-style="normal" font-weight="normal" text-decoration="none" x="682.85205078125" y="16.5">«interface»</text></g></g><g transform="translate(-86,10) scale(1,1)"><g><path fill="none" stroke="none"/><text fill="#000000" stroke="none" font-family="Times New Roman" font-size="14px" font-style="italic" font-weight="bold" text-decoration="none" x="663.00048828125" y="32.5">SQLAPIInterface</text></g></g><g transform="translate(-86,10) scale(1,1)"><g><path fill="none" stroke="none"/><text fill="#000000" stroke="none" font-family="Times New Roman" font-size="14px" font-style="normal" font-weight="normal" text-decoration="none" x="685.7607421875" y="48.5">(from api)</text></g></g><g transform="translate(-86,10) scale(1,1)"><g><path fill="none" stroke="none"/><text fill="#000000" stroke="none" font-family="Times New Roman" font-size="14px" font-style="italic" font-weight="normal" text-decoration="none" x="373" y="72.5">«abstractmethod»+execute_query_no_returns(sql_query: str, query_data: Optional[Iterable] = None) {query}</text></g></g><g transform="translate(-86,10) scale(1,1)"><g><path fill="none" stroke="none"/><text fill="#000000" stroke="none" font-family="Times New Roman" font-size="14px" font-style="italic" font-weight="normal" text-decoration="none" x="373" y="88.5">«abstractmethod»+execute_query_returns_one(sql_query: str, query_data: Optional[Iterable] = None): Any {query}</text></g></g><g transform="translate(-86,10) scale(1,1)"><g><path fill="none" stroke="none"/><text fill="#000000" stroke="none" font-family="Times New Roman" font-size="14px" font-style="italic" font-weight="normal" text-decoration="none" x="373" y="104.5">«abstractmethod»+execute_query_returns_all(sql_query: str, query_data: Optional[Iterable] = None): Iterable[Any] {query}</text></g></g><g transform="translate(-86,10) scale(1,1)"><rect fill="#C0C0C0" stroke="none" x="1439" y="135" width="289.765625" height="151" opacity="0.2"/></g><g transform="translate(-86,10) scale(1,1)"><rect fill="#ffffff" stroke="none" x="1432" y="128" width="289.765625" height="151"/></g><g transform="translate(-86,10) scale(1,1)"><path fill="none" stroke="#000000" d="M 1432 128 L 1721.765625 128 L 1721.765625 279 L 1432 279 L 1432 128 Z Z" stroke-miterlimit="10"/></g><g transform="translate(-86,10) scale(1,1)"><path fill="none" stroke="#000000" d="M 1692.765625 133 L 1716.765625 133 L 1716.765625 157 L 1692.765625 157 L 1692.765625 133 Z Z" stroke-miterlimit="10"/></g><g transform="translate(-86,10) scale(1,1)"><path fill="none" stroke="#000000" d="M 1692.765625 133 L 1716.765625 157" stroke-miterlimit="10"/></g><g transform="translate(-86,10) scale(1,1)"><path fill="none" stroke="#000000" d="M 1716.765625 133 L 1692.765625 157" stroke-miterlimit="10"/></g><g transform="translate(-86,10) scale(1,1)"><path fill="none" stroke="#000000" d="M 1432 184 L 1721.765625 184" stroke-miterlimit="10"/></g><g transform="translate(-86,10) scale(1,1)"><path fill="none" stroke="#000000" d="M 1432 240 L 1721.765625 240" stroke-miterlimit="10"/></g><g transform="translate(-86,10) scale(1,1)"><g><path fill="none" stroke="none"/><text fill="#000000" stroke="none" font-family="Times New Roman" font-size="14px" font-style="normal" font-weight="normal" text-decoration="none" x="1493.16357421875" y="144.5">«dataclass(frozen=True)»</text></g></g><g transform="translate(-86,10) scale(1,1)"><g><path fill="none" stroke="none"/><text fill="#000000" stroke="none" font-family="Times New Roman" font-size="14px" font-style="italic" font-weight="bold" text-decoration="none" x="1517.564453125" y="160.5">PoolConfigDTO</text></g></g><g transform="translate(-86,10) scale(1,1)"><g><path fill="none" stroke="none"/><text fill="#000000" stroke="none" font-family="Times New Roman" font-size="14px" font-style="normal" font-weight="normal" text-decoration="none" x="1526.98095703125" y="176.5">(from config)</text></g></g><g transform="translate(-86,10) scale(1,1)"><g><path fill="none" stroke="none"/><text fill="#000000" stroke="none" font-family="Times New Roman" font-size="14px" font-style="normal" font-weight="normal" text-decoration="none" x="1437" y="200.5">+name: str {readOnly}</text></g></g><g transform="translate(-86,10) scale(1,1)"><g><path fill="none" stroke="none"/><text fill="#000000" stroke="none" font-family="Times New Roman" font-size="14px" font-style="normal" font-weight="normal" text-decoration="none" x="1437" y="216.5">+size: int {readOnly}</text></g></g><g transform="translate(-86,10) scale(1,1)"><g><path fill="none" stroke="none"/><text fill="#000000" stroke="none" font-family="Times New Roman" font-size="14px" font-style="normal" font-weight="normal" text-decoration="none" x="1437" y="232.5">+reset_session: bool {readOnly}</text></g></g><g transform="translate(-86,10) scale(1,1)"><g><path fill="none" stroke="none"/><text fill="#000000" stroke="none" font-family="Times New Roman" font-size="14px" font-style="normal" font-weight="normal" text-decoration="none" x="1437" y="256.5">+__post_init__() {query}</text></g></g><g transform="translate(-86,10) scale(1,1)"><g><path fill="none" stroke="none"/><text fill="#000000" stroke="none" font-family="Times New Roman" font-size="14px" font-style="italic" font-weight="normal" text-decoration="none" x="1437" y="272.5">«abstractmethod»+validate_fields_data() {query}</text></g></g><g transform="translate(-86,10) scale(1,1)"><path fill="none" stroke="#000000" d="M 1576 416 L 1576 279" stroke-miterlimit="10"/></g><g transform="translate(-86,10) scale(1,1)"><path fill="#FFFFFF" stroke="none" d="M 1584.419035512032 299.3253497152483 L 1576 279 L 1567.580964487968 299.3253497152483"/></g><g transform="translate(-86,10) scale(1,1)"><path fill="none" stroke="#000000" d="M 1584.419035512032 299.3253497152483 L 1576 279 L 1567.580964487968 299.3253497152483 L 1584.419035512032 299.3253497152483" stroke-miterlimit="10"/></g><g transform="translate(-86,10) scale(1,1)"><path fill="none" stroke="#000000" d="M 1480 455 L 1341 455" stroke-miterlimit="10"/></g><g transform="translate(-86,10) scale(1,1)"><path fill="#FFFFFF" stroke="none" d="M 1351.162674857624 450.790482243984 L 1341 455 L 1351.162674857624 459.209517756016 L 1363 455"/></g><g transform="translate(-86,10) scale(1,1)"><path fill="none" stroke="#000000" d="M 1351.162674857624 450.790482243984 L 1341 455 L 1351.162674857624 459.209517756016 L 1363 455 L 1351.162674857624 450.790482243984" stroke-miterlimit="10"/></g><g transform="translate(-86,10) scale(1,1)"><path fill="none" stroke="#000000" d="M 1463.837325142376 459.209517756016 L 1474 455 L 1463.837325142376 450.790482243984" stroke-miterlimit="10"/></g><g transform="translate(-86,10) scale(1,1)"><path fill="#000000" stroke="none" d="M 1474 455 C 1474 453.3431456 1475.3431456 452 1477 452 C 1478.6568544 452 1480 453.3431456 1480 455 C 1480 456.6568544 1478.6568544 458 1477 458 C 1475.3431456 458 1474 456.6568544 1474 455 Z"/></g><g transform="translate(-86,10) scale(1,1)"><g><path fill="none" stroke="none"/><text fill="#000000" stroke="none" font-family="Times New Roman" font-size="14px" font-style="normal" font-weight="normal" text-decoration="none" x="1390.5" y="472.5">-__pool_config</text></g></g><g transform="translate(-86,10) scale(1,1)"><g><path fill="none" stroke="none"/><text fill="#000000" stroke="none" font-family="Times New Roman" font-size="14px" font-style="normal" font-weight="normal" text-decoration="none" x="1358.5" y="446.5">*</text></g></g><g transform="translate(-86,10) scale(1,1)"><path fill="none" stroke="#000000" d="M 312 384 L 312 64 L 368 64" stroke-miterlimit="10" stroke-dasharray="3"/></g><g transform="translate(-86,10) scale(1,1)"><path fill="#FFFFFF" stroke="none" d="M 347.6746502847517 72.41903551203198 L 368 64 L 347.6746502847517 55.580964487968025"/></g><g transform="translate(-86,10) scale(1,1)"><path fill="none" stroke="#000000" d="M 347.6746502847517 72.41903551203198 L 368 64 L 347.6746502847517 55.580964487968025 L 347.6746502847517 72.41903551203198" stroke-miterlimit="10"/></g><g transform="translate(-86,10) scale(1,1)"><path fill="none" stroke="#000000" d="M 1144 376 L 1144 55 L 1085 55" stroke-miterlimit="10" stroke-dasharray="3"/></g><g transform="translate(-86,10) scale(1,1)"><path fill="#FFFFFF" stroke="none" d="M 1105.3253497152482 46.580964487968025 L 1085 55 L 1105.3253497152482 63.419035512031975"/></g><g transform="translate(-86,10) scale(1,1)"><path fill="none" stroke="#000000" d="M 1105.3253497152482 46.580964487968025 L 1085 55 L 1105.3253497152482 63.419035512031975 L 1105.3253497152482 46.580964487968025" stroke-miterlimit="10"/></g></g></svg>