<svg version="1.1" xmlns="http://www.w3.org/2000/svg" xmlns:xlink="http://www.w3.org/1999/xlink" width="996" height="356"><defs/><g><g transform="translate(10,10) scale(1,1)"><path fill="none" stroke="#000000" d="M 0 0 L 976 0 L 976 336 L 0 336 L 0 0" stroke-miterlimit="10"/></g><g transform="translate(10,10) scale(1,1)"><path fill="#ffffff" stroke="none" d="M 0 0 L 0 23 L 77.427734375 23 L 88.927734375 11.5 L 88.927734375 0 L 0 0"/></g><g transform="translate(10,10) scale(1,1)"><path fill="none" stroke="#000000" d="M 0 0 L 0 23 L 77.427734375 23 L 88.927734375 11.5 L 88.927734375 0 L 0 0 L 0 0" stroke-miterlimit="10"/></g><g transform="translate(10,10) scale(1,1)"><g><path fill="none" stroke="none"/><text fill="#000000" stroke="none" font-family="Times New Roman" font-size="14px" font-style="normal" font-weight="normal" text-decoration="none" x="23.4482421875" y="16.5">Diagram</text></g></g><g transform="translate(10,10) scale(1,1)"><g><path fill="none" stroke="none"/><text fill="#000000" stroke="none" font-family="Times New Roman" font-size="14px" font-style="normal" font-weight="bold" text-decoration="none" x="4.60693359375" y="16.5">sd</text></g></g><g transform="translate(10,10) scale(1,1)"><rect fill="#C0C0C0" stroke="none" x="23" y="47" width="212.2861328125" height="39" opacity="0.2"/></g><g transform="translate(10,10) scale(1,1)"><rect fill="#ffffff" stroke="none" x="16" y="40" width="212.2861328125" height="39"/></g><g transform="translate(10,10) scale(1,1)"><path fill="none" stroke="#000000" d="M 16 40 L 228.2861328125 40 L 228.2861328125 79 L 16 79 L 16 40 Z Z" stroke-miterlimit="10"/></g><g transform="translate(10,10) scale(1,1)"><g><path fill="none" stroke="none"/><text fill="#000000" stroke="none" font-family="Times New Roman" font-size="14px" font-style="normal" font-weight="bold" text-decoration="none" x="25.5" y="58.5">Class-1: MySQLDataBaseSingle</text></g></g><g transform="translate(10,10) scale(1,1)"><path fill="none" stroke="#000000" d="M 123.5 80 L 123.5 288" stroke-miterlimit="10" stroke-dasharray="3"/></g><g transform="translate(10,10) scale(1,1)"><rect fill="#C0C0C0" stroke="none" x="255" y="47" width="207.603515625" height="39" opacity="0.2"/></g><g transform="translate(10,10) scale(1,1)"><rect fill="#ffffff" stroke="none" x="248" y="40" width="207.603515625" height="39"/></g><g transform="translate(10,10) scale(1,1)"><path fill="none" stroke="#000000" d="M 248 40 L 455.603515625 40 L 455.603515625 79 L 248 79 L 248 40 Z Z" stroke-miterlimit="10"/></g><g transform="translate(10,10) scale(1,1)"><g><path fill="none" stroke="none"/><text fill="#000000" stroke="none" font-family="Times New Roman" font-size="14px" font-style="normal" font-weight="bold" text-decoration="none" x="257.5" y="58.5">AbstractClass-1: SQLDataBase</text></g></g><g transform="translate(10,10) scale(1,1)"><path fill="none" stroke="#000000" d="M 352.5 80 L 352.5 174" stroke-miterlimit="10" stroke-dasharray="3"/></g><g transform="translate(10,10) scale(1,1)"><rect fill="#C0C0C0" stroke="none" x="487" y="47" width="252.666015625" height="39" opacity="0.2"/></g><g transform="translate(10,10) scale(1,1)"><rect fill="#ffffff" stroke="none" x="480" y="40" width="252.666015625" height="39"/></g><g transform="translate(10,10) scale(1,1)"><path fill="none" stroke="#000000" d="M 480 40 L 732.666015625 40 L 732.666015625 79 L 480 79 L 480 40 Z Z" stroke-miterlimit="10"/></g><g transform="translate(10,10) scale(1,1)"><g><path fill="none" stroke="none"/><text fill="#000000" stroke="none" font-family="Times New Roman" font-size="14px" font-style="normal" font-weight="bold" text-decoration="none" x="489.5" y="58.5">Interface-1: SingleConnectionInterface</text></g></g><g transform="translate(10,10) scale(1,1)"><path fill="none" stroke="#000000" d="M 607.5 80 L 607.5 234" stroke-miterlimit="10" stroke-dasharray="3"/></g><g transform="translate(10,10) scale(1,1)"><rect fill="#C0C0C0" stroke="none" x="767" y="47" width="199.7763671875" height="39" opacity="0.2"/></g><g transform="translate(10,10) scale(1,1)"><rect fill="#ffffff" stroke="none" x="760" y="40" width="199.7763671875" height="39"/></g><g transform="translate(10,10) scale(1,1)"><path fill="none" stroke="#000000" d="M 760 40 L 959.7763671875 40 L 959.7763671875 79 L 760 79 L 760 40 Z Z" stroke-miterlimit="10"/></g><g transform="translate(10,10) scale(1,1)"><g><path fill="none" stroke="none"/><text fill="#000000" stroke="none" font-family="Times New Roman" font-size="14px" font-style="normal" font-weight="bold" text-decoration="none" x="769.5" y="58.5">Interface-2: SQLAPIInterface</text></g></g><g transform="translate(10,10) scale(1,1)"><path fill="none" stroke="#000000" d="M 860.5 80 L 860.5 282" stroke-miterlimit="10" stroke-dasharray="3"/></g><g transform="translate(10,10) scale(1,1)"><path fill="none" stroke="#000000" d="M 123 121 L 345 121" stroke-miterlimit="10"/></g><g transform="translate(10,10) scale(1,1)"><path fill="#000000" stroke="none" d="M 334.83732514237585 125.20951775601598 L 345 121 L 334.83732514237585 116.79048224398402"/></g><g transform="translate(10,10) scale(1,1)"><path fill="none" stroke="#000000" d="M 334.83732514237585 125.20951775601598 L 345 121 L 334.83732514237585 116.79048224398402 L 334.83732514237585 125.20951775601598" stroke-miterlimit="10"/></g><g transform="translate(10,10) scale(1,1)"><g><path fill="none" stroke="none"/><text fill="#000000" stroke="none" font-family="Times New Roman" font-size="14px" font-style="normal" font-weight="normal" text-decoration="none" x="194.5" y="115.5">1 : Implement</text></g></g><g transform="translate(10,10) scale(1,1)"><rect fill="#ffffff" stroke="none" x="345" y="121" width="13" height="28"/></g><g transform="translate(10,10) scale(1,1)"><path fill="none" stroke="#000000" d="M 345 121 L 358 121 L 358 149 L 345 149 L 345 121 Z Z" stroke-miterlimit="10"/></g><g transform="translate(10,10) scale(1,1)"><path fill="none" stroke="#000000" d="M 123 184 L 600 184" stroke-miterlimit="10"/></g><g transform="translate(10,10) scale(1,1)"><path fill="#000000" stroke="none" d="M 589.8373251423759 188.209517756016 L 600 184 L 589.8373251423758 179.790482243984"/></g><g transform="translate(10,10) scale(1,1)"><path fill="none" stroke="#000000" d="M 589.8373251423759 188.209517756016 L 600 184 L 589.8373251423758 179.790482243984 L 589.8373251423759 188.209517756016" stroke-miterlimit="10"/></g><g transform="translate(10,10) scale(1,1)"><g><path fill="none" stroke="none"/><text fill="#000000" stroke="none" font-family="Times New Roman" font-size="14px" font-style="normal" font-weight="normal" text-decoration="none" x="321.5" y="178.5">2 : Implement</text></g></g><g transform="translate(10,10) scale(1,1)"><rect fill="#ffffff" stroke="none" x="600" y="184" width="13" height="28"/></g><g transform="translate(10,10) scale(1,1)"><path fill="none" stroke="#000000" d="M 600 184 L 613 184 L 613 212 L 600 212 L 600 184 Z Z" stroke-miterlimit="10"/></g><g transform="translate(10,10) scale(1,1)"><path fill="none" stroke="#000000" d="M 123 240 L 853 240" stroke-miterlimit="10"/></g><g transform="translate(10,10) scale(1,1)"><path fill="#000000" stroke="none" d="M 842.8373251423759 244.209517756016 L 853 240 L 842.8373251423758 235.790482243984"/></g><g transform="translate(10,10) scale(1,1)"><path fill="none" stroke="#000000" d="M 842.8373251423759 244.209517756016 L 853 240 L 842.8373251423758 235.790482243984 L 842.8373251423759 244.209517756016" stroke-miterlimit="10"/></g><g transform="translate(10,10) scale(1,1)"><g><path fill="none" stroke="none"/><text fill="#000000" stroke="none" font-family="Times New Roman" font-size="14px" font-style="normal" font-weight="normal" text-decoration="none" x="448.5" y="234.5">3 : Implement</text></g></g><g transform="translate(10,10) scale(1,1)"><rect fill="#ffffff" stroke="none" x="853" y="240" width="13" height="28"/></g><g transform="translate(10,10) scale(1,1)"><path fill="none" stroke="#000000" d="M 853 240 L 866 240 L 866 268 L 853 268 L 853 240 Z Z" stroke-miterlimit="10"/></g></g></svg>